<svg width="18" height="14" viewBox="0 0 18 14" fill="none" xmlns="http://www.w3.org/2000/svg">
<path fill-rule="evenodd" clip-rule="evenodd" d="M9 0C9.7695 0 10.5588 0.0192501 11.3238 0.0507501L12.2274 0.09275L13.0923 0.142625L13.9023 0.196L14.6421 0.252C15.4451 0.311405 16.2007 0.64438 16.776 1.19228C17.3512 1.74017 17.7091 2.46785 17.7867 3.24712L17.8227 3.619L17.8902 4.41525C17.9532 5.24037 18 6.13987 18 7C18 7.86013 17.9532 8.75963 17.8902 9.58475L17.8227 10.381L17.7867 10.7529C17.7091 11.5323 17.351 12.2601 16.7756 12.808C16.2002 13.3559 15.4443 13.6888 14.6412 13.748L13.9032 13.8031L13.0932 13.8574L12.2274 13.9072L11.3238 13.9492C10.5496 13.9819 9.77488 13.9988 9 14C8.22512 13.9988 7.45035 13.9819 6.6762 13.9492L5.7726 13.9072L4.9077 13.8574L4.0977 13.8031L3.3579 13.748C2.55493 13.6886 1.79928 13.3556 1.22404 12.8077C0.6488 12.2598 0.290872 11.5322 0.2133 10.7529L0.1773 10.381L0.1098 9.58475C0.0412495 8.72473 0.00462568 7.86259 0 7C0 6.13987 0.0468 5.24037 0.1098 4.41525L0.1773 3.619L0.2133 3.24712C0.290842 2.46798 0.64864 1.74042 1.2237 1.19254C1.79875 0.644664 2.55419 0.311602 3.357 0.252L4.0959 0.196L4.9059 0.142625L5.7717 0.09275L6.6753 0.0507501C7.44975 0.0181363 8.22482 0.00121588 9 0ZM7.2 4.87812V9.12187C7.2 9.52612 7.65 9.77812 8.01 9.57687L11.79 7.455C11.8723 7.40897 11.9406 7.34267 11.9881 7.26279C12.0356 7.18291 12.0606 7.09227 12.0606 7C12.0606 6.90773 12.0356 6.81709 11.9881 6.73721C11.9406 6.65733 11.8723 6.59103 11.79 6.545L8.01 4.424C7.92788 4.37791 7.83473 4.35365 7.73991 4.35366C7.64509 4.35368 7.55195 4.37797 7.46985 4.42408C7.38775 4.4702 7.31959 4.53653 7.27222 4.61638C7.22485 4.69624 7.19994 4.78681 7.2 4.879V4.87812Z" fill="#D0D0D0"/>
</svg>
