<svg width="316" height="316" viewBox="0 0 316 316" fill="none" xmlns="http://www.w3.org/2000/svg">
<mask id="path-1-inside-1_1322_3438" fill="white">
<path d="M0 0H316V316H0V0Z"/>
</mask>
<path d="M0 0H316V316H0V0Z" fill="#FAF9F7"/>
<path d="M0 0V1H316V0V-1H0V0Z" fill="#191E1E" mask="url(#path-1-inside-1_1322_3438)"/>
<path d="M62.34 66.18C63.06 66.26 63.8667 66.32 64.76 66.36C65.6667 66.4 66.62 66.42 67.62 66.42C68.26 66.42 68.9 66.4067 69.54 66.38C70.1933 66.3533 70.8133 66.32 71.4 66.28C72 66.24 72.54 66.1933 73.02 66.14V67.78C72.5667 67.82 72.04 67.86 71.44 67.9C70.84 67.94 70.2067 67.9733 69.54 68C68.8867 68.0133 68.2533 68.02 67.64 68.02C66.6267 68.02 65.6867 68 64.82 67.96C63.9533 67.92 63.1267 67.8667 62.34 67.8V66.18ZM63.14 74.24C63.0067 74.6267 62.9067 75.0133 62.84 75.4C62.7733 75.7733 62.74 76.14 62.74 76.5C62.74 77.2733 63.1267 77.9 63.9 78.38C64.6867 78.8467 65.88 79.08 67.48 79.08C68.4133 79.08 69.3 79.0533 70.14 79C70.9933 78.9333 71.7733 78.84 72.48 78.72C73.2 78.6 73.8133 78.46 74.32 78.3L74.34 80.02C73.86 80.14 73.2667 80.2533 72.56 80.36C71.8667 80.48 71.0933 80.5667 70.24 80.62C69.3867 80.6867 68.48 80.72 67.52 80.72C66.1733 80.72 65.02 80.5733 64.06 80.28C63.1 79.9867 62.3667 79.5533 61.86 78.98C61.3533 78.4067 61.1 77.7 61.1 76.86C61.1 76.34 61.1467 75.8467 61.24 75.38C61.3333 74.9133 61.4267 74.48 61.52 74.08L63.14 74.24ZM73.58 63.94C73.7533 64.18 73.94 64.4667 74.14 64.8C74.34 65.12 74.5333 65.4533 74.72 65.8C74.92 66.1333 75.0867 66.4333 75.22 66.7L74.14 67.2C73.94 66.7867 73.6867 66.3133 73.38 65.78C73.0733 65.2467 72.78 64.7867 72.5 64.4L73.58 63.94ZM75.78 63.14C75.9667 63.3933 76.1667 63.6867 76.38 64.02C76.5933 64.3533 76.8 64.6867 77 65.02C77.2 65.34 77.36 65.6267 77.48 65.88L76.38 66.36C76.1667 65.92 75.9067 65.4467 75.6 64.94C75.3067 64.42 75.0133 63.9733 74.72 63.6L75.78 63.14ZM89.64 63.44H91.14V67.64H89.64V63.44ZM83.62 66.88H96.86V68.3H83.62V66.88ZM89.56 67.42L91 67.9C90.44 68.9 89.7733 69.86 89 70.78C88.24 71.6867 87.42 72.52 86.54 73.28C85.6733 74.0267 84.78 74.68 83.86 75.24C83.7933 75.1333 83.6933 75.0067 83.56 74.86C83.44 74.7 83.3133 74.54 83.18 74.38C83.0467 74.22 82.9267 74.0933 82.82 74C83.7267 73.5067 84.6 72.92 85.44 72.24C86.28 71.56 87.0533 70.8133 87.76 70C88.4667 69.1867 89.0667 68.3267 89.56 67.42ZM83.86 79.82C84.5667 79.6867 85.38 79.52 86.3 79.32C87.22 79.12 88.1933 78.9067 89.22 78.68C90.26 78.4533 91.3 78.2133 92.34 77.96L92.46 79.32C91.5133 79.56 90.5533 79.7933 89.58 80.02C88.6067 80.26 87.6667 80.4867 86.76 80.7C85.8667 80.9133 85.0467 81.1067 84.3 81.28L83.86 79.82ZM96.04 70.2L97.16 71.24C96.7067 71.6267 96.2133 72.0333 95.68 72.46C95.1467 72.8867 94.6133 73.2933 94.08 73.68C93.56 74.0533 93.0667 74.3867 92.6 74.68L91.74 73.8C92.1933 73.4933 92.68 73.1333 93.2 72.72C93.7333 72.3067 94.2467 71.88 94.74 71.44C95.2467 70.9867 95.68 70.5733 96.04 70.2ZM91.32 67.74C91.52 69.1267 91.7867 70.46 92.12 71.74C92.4667 73.0067 92.8933 74.1867 93.4 75.28C93.92 76.36 94.5267 77.32 95.22 78.16C95.9133 78.9867 96.7133 79.6467 97.62 80.14C97.5 80.2333 97.3733 80.3533 97.24 80.5C97.1067 80.6467 96.98 80.8 96.86 80.96C96.74 81.12 96.6333 81.2733 96.54 81.42C95.2733 80.6467 94.2067 79.5933 93.34 78.26C92.4867 76.9267 91.7933 75.3867 91.26 73.64C90.7267 71.88 90.3 69.98 89.98 67.94L91.32 67.74ZM83.36 63.26L84.78 63.7C84.3267 64.82 83.8 65.9267 83.2 67.02C82.6133 68.1133 81.9733 69.14 81.28 70.1C80.5867 71.0467 79.8733 71.8933 79.14 72.64C79.1 72.52 79.0267 72.3667 78.92 72.18C78.8133 71.98 78.7067 71.7867 78.6 71.6C78.4933 71.4133 78.3933 71.26 78.3 71.14C78.9667 70.5 79.6133 69.76 80.24 68.92C80.8667 68.08 81.4467 67.18 81.98 66.22C82.5267 65.2467 82.9867 64.26 83.36 63.26ZM81.3 68.42L82.7 67L82.72 67.02V81.54H81.3V68.42ZM86.32 72.66L87.72 71.24L87.76 71.26V79.98H86.32V72.66ZM99.04 65.5H107.28V66.86H99.04V65.5ZM102.52 63.24H103.88V69.46H102.52V63.24ZM100.58 69.84V72.62H105.88V69.84H100.58ZM99.42 68.64H107.1V73.82H99.42V68.64ZM102.48 73.06L103.48 73.52C103.173 74.2933 102.787 75.1 102.32 75.94C101.867 76.78 101.373 77.5667 100.84 78.3C100.307 79.0333 99.7667 79.64 99.22 80.12C99.1533 79.9333 99.0467 79.7067 98.9 79.44C98.7667 79.1733 98.64 78.96 98.52 78.8C99.0133 78.3733 99.5133 77.8467 100.02 77.22C100.54 76.58 101.013 75.9 101.44 75.18C101.88 74.4467 102.227 73.74 102.48 73.06ZM103.82 73.88C103.98 74 104.22 74.2067 104.54 74.5C104.873 74.7933 105.22 75.1067 105.58 75.44C105.953 75.7733 106.293 76.0867 106.6 76.38C106.92 76.6733 107.147 76.8867 107.28 77.02L106.36 78.16C106.213 77.9467 105.993 77.6733 105.7 77.34C105.42 77.0067 105.107 76.6667 104.76 76.32C104.427 75.96 104.107 75.62 103.8 75.3C103.493 74.98 103.247 74.7267 103.06 74.54L103.82 73.88ZM102.6 69.38H103.8V73.32H103.88V81.62H102.52V73.32H102.6V69.38ZM107.44 64.14H117.08V65.46H107.44V64.14ZM109.66 71.64V73.56H114.9V71.64H109.66ZM109.66 74.68V76.66H114.9V74.68H109.66ZM109.66 68.6V70.5H114.9V68.6H109.66ZM108.3 67.42H116.34V77.84H108.3V67.42ZM111.46 64.8L113.1 65.02C112.94 65.5933 112.773 66.1733 112.6 66.76C112.44 67.3467 112.28 67.8533 112.12 68.28L110.84 68.02C110.973 67.58 111.1 67.0533 111.22 66.44C111.34 65.8133 111.42 65.2667 111.46 64.8ZM110.06 78.2L111.36 78.96C111.013 79.2933 110.6 79.6333 110.12 79.98C109.64 80.3133 109.133 80.62 108.6 80.9C108.08 81.1933 107.567 81.4333 107.06 81.62C106.94 81.4867 106.78 81.32 106.58 81.12C106.393 80.92 106.22 80.7533 106.06 80.62C106.567 80.4333 107.073 80.2067 107.58 79.94C108.087 79.6733 108.56 79.3867 109 79.08C109.44 78.7733 109.793 78.48 110.06 78.2ZM113 79.02L114.12 78.3C114.507 78.54 114.913 78.8133 115.34 79.12C115.78 79.4267 116.193 79.7333 116.58 80.04C116.967 80.3467 117.287 80.6267 117.54 80.88L116.36 81.68C116.12 81.4267 115.807 81.14 115.42 80.82C115.047 80.5 114.647 80.18 114.22 79.86C113.793 79.54 113.387 79.26 113 79.02ZM126.76 64.4C126.72 64.5733 126.68 64.7667 126.64 64.98C126.6 65.18 126.56 65.38 126.52 65.58C126.48 65.82 126.42 66.1467 126.34 66.56C126.273 66.9733 126.2 67.4133 126.12 67.88C126.04 68.3333 125.947 68.7667 125.84 69.18C125.707 69.7533 125.54 70.4 125.34 71.12C125.14 71.8267 124.913 72.58 124.66 73.38C124.407 74.18 124.12 75 123.8 75.84C123.48 76.6667 123.127 77.4933 122.74 78.32C122.353 79.1333 121.933 79.9 121.48 80.62L119.84 79.98C120.307 79.3667 120.733 78.68 121.12 77.92C121.52 77.16 121.887 76.3733 122.22 75.56C122.553 74.7333 122.853 73.92 123.12 73.12C123.4 72.32 123.633 71.58 123.82 70.9C124.007 70.22 124.153 69.6333 124.26 69.14C124.447 68.34 124.6 67.5133 124.72 66.66C124.84 65.7933 124.9 64.9733 124.9 64.2L126.76 64.4ZM133.64 66.52C133.96 66.9333 134.293 67.4467 134.64 68.06C135 68.6733 135.347 69.3267 135.68 70.02C136.027 70.7133 136.34 71.38 136.62 72.02C136.9 72.66 137.127 73.2133 137.3 73.68L135.74 74.42C135.593 73.9133 135.393 73.3333 135.14 72.68C134.887 72.0133 134.593 71.34 134.26 70.66C133.94 69.9667 133.6 69.32 133.24 68.72C132.893 68.1067 132.54 67.5933 132.18 67.18L133.64 66.52ZM119.56 68.78C119.867 68.8067 120.16 68.82 120.44 68.82C120.72 68.8067 121.02 68.7933 121.34 68.78C121.647 68.7667 122.033 68.7467 122.5 68.72C122.967 68.68 123.473 68.64 124.02 68.6C124.58 68.56 125.127 68.52 125.66 68.48C126.207 68.4267 126.707 68.3867 127.16 68.36C127.627 68.32 127.993 68.3 128.26 68.3C128.86 68.3 129.4 68.3933 129.88 68.58C130.373 68.7667 130.767 69.1067 131.06 69.6C131.353 70.0933 131.5 70.7867 131.5 71.68C131.5 72.4667 131.46 73.32 131.38 74.24C131.313 75.1467 131.193 76.0133 131.02 76.84C130.847 77.6667 130.62 78.3533 130.34 78.9C130.033 79.58 129.633 80.0267 129.14 80.24C128.647 80.4667 128.073 80.58 127.42 80.58C127.047 80.58 126.64 80.5467 126.2 80.48C125.76 80.4267 125.38 80.36 125.06 80.28L124.8 78.62C125.093 78.7 125.387 78.7733 125.68 78.84C125.987 78.9067 126.28 78.9533 126.56 78.98C126.84 79.0067 127.073 79.02 127.26 79.02C127.62 79.02 127.947 78.96 128.24 78.84C128.547 78.7067 128.8 78.4267 129 78C129.213 77.5467 129.387 76.98 129.52 76.3C129.667 75.6067 129.773 74.8733 129.84 74.1C129.92 73.3267 129.96 72.5867 129.96 71.88C129.96 71.2533 129.873 70.7933 129.7 70.5C129.527 70.1933 129.28 69.9867 128.96 69.88C128.64 69.76 128.267 69.7 127.84 69.7C127.493 69.7 127.033 69.7267 126.46 69.78C125.887 69.82 125.273 69.8733 124.62 69.94C123.98 70.0067 123.38 70.0733 122.82 70.14C122.26 70.1933 121.827 70.24 121.52 70.28C121.293 70.3067 121 70.3467 120.64 70.4C120.293 70.44 119.987 70.48 119.72 70.52L119.56 68.78ZM144.7 64.32C145.127 64.4533 145.68 64.6 146.36 64.76C147.053 64.92 147.78 65.08 148.54 65.24C149.313 65.3867 150.047 65.52 150.74 65.64C151.433 65.7467 152 65.82 152.44 65.86L152.06 67.4C151.687 67.3467 151.227 67.2733 150.68 67.18C150.147 67.0867 149.573 66.98 148.96 66.86C148.347 66.74 147.74 66.62 147.14 66.5C146.54 66.3667 145.993 66.2467 145.5 66.14C145.007 66.02 144.607 65.92 144.3 65.84L144.7 64.32ZM144.26 67.96C144.193 68.3067 144.12 68.7333 144.04 69.24C143.973 69.7333 143.9 70.2533 143.82 70.8C143.74 71.3467 143.667 71.8667 143.6 72.36C143.533 72.8533 143.473 73.26 143.42 73.58C144.393 72.74 145.42 72.1267 146.5 71.74C147.593 71.34 148.74 71.14 149.94 71.14C150.967 71.14 151.86 71.3267 152.62 71.7C153.38 72.06 153.973 72.56 154.4 73.2C154.827 73.8267 155.04 74.5333 155.04 75.32C155.04 76.2133 154.833 77.0267 154.42 77.76C154.02 78.48 153.387 79.0867 152.52 79.58C151.667 80.0733 150.573 80.42 149.24 80.62C147.907 80.8333 146.307 80.86 144.44 80.7L143.96 79.06C146.08 79.3133 147.833 79.3067 149.22 79.04C150.607 78.76 151.64 78.2933 152.32 77.64C153.013 76.9733 153.36 76.1867 153.36 75.28C153.36 74.7467 153.207 74.2733 152.9 73.86C152.593 73.4467 152.173 73.1267 151.64 72.9C151.12 72.66 150.52 72.54 149.84 72.54C148.533 72.54 147.347 72.78 146.28 73.26C145.227 73.7267 144.347 74.38 143.64 75.22C143.493 75.3933 143.373 75.5667 143.28 75.74C143.187 75.9 143.107 76.06 143.04 76.22L141.56 75.86C141.64 75.4867 141.72 75.04 141.8 74.52C141.88 73.9867 141.96 73.42 142.04 72.82C142.12 72.2067 142.193 71.5933 142.26 70.98C142.34 70.3667 142.407 69.78 142.46 69.22C142.513 68.6467 142.553 68.1533 142.58 67.74L144.26 67.96ZM161.42 70.7H166.38V72.1H161.42V70.7ZM165.8 70.7H167.26C167.26 70.7 167.26 70.74 167.26 70.82C167.26 70.8867 167.253 70.9733 167.24 71.08C167.24 71.1867 167.24 71.2733 167.24 71.34C167.213 72.8333 167.173 74.0467 167.12 74.98C167.08 75.9 167.02 76.6 166.94 77.08C166.873 77.56 166.767 77.8933 166.62 78.08C166.46 78.2667 166.287 78.4 166.1 78.48C165.927 78.56 165.7 78.62 165.42 78.66C165.153 78.6867 164.807 78.7 164.38 78.7C163.953 78.6867 163.493 78.6667 163 78.64C162.987 78.4267 162.94 78.1933 162.86 77.94C162.793 77.6733 162.7 77.44 162.58 77.24C163.033 77.2933 163.46 77.3267 163.86 77.34C164.26 77.34 164.54 77.34 164.7 77.34C164.847 77.34 164.967 77.3267 165.06 77.3C165.167 77.2733 165.26 77.2133 165.34 77.12C165.433 77 165.507 76.7333 165.56 76.32C165.627 75.8933 165.673 75.2533 165.7 74.4C165.74 73.5333 165.773 72.38 165.8 70.94V70.7ZM171.42 64.2L172.32 63.28C172.747 63.48 173.187 63.72 173.64 64C174.107 64.2667 174.54 64.54 174.94 64.82C175.34 65.0867 175.673 65.3333 175.94 65.56L175 66.6C174.747 66.36 174.42 66.1 174.02 65.82C173.62 65.5267 173.193 65.24 172.74 64.96C172.287 64.68 171.847 64.4267 171.42 64.2ZM174.3 69.62L175.8 70C174.947 72.6133 173.78 74.88 172.3 76.8C170.82 78.72 169.06 80.2867 167.02 81.5C166.94 81.3933 166.833 81.26 166.7 81.1C166.567 80.9533 166.427 80.8 166.28 80.64C166.147 80.4933 166.027 80.3667 165.92 80.26C167.947 79.1933 169.66 77.76 171.06 75.96C172.46 74.1467 173.54 72.0333 174.3 69.62ZM161.54 66.6H177.02V68.06H161.54V66.6ZM160.56 66.6H162.12V72.24C162.12 72.9467 162.093 73.7133 162.04 74.54C161.987 75.3667 161.887 76.2067 161.74 77.06C161.593 77.9133 161.38 78.7467 161.1 79.56C160.82 80.36 160.447 81.0867 159.98 81.74C159.9 81.6333 159.78 81.5133 159.62 81.38C159.473 81.2467 159.313 81.12 159.14 81C158.98 80.88 158.84 80.7933 158.72 80.74C159.28 79.9133 159.687 79.0067 159.94 78.02C160.207 77.0333 160.373 76.04 160.44 75.04C160.52 74.0267 160.56 73.0867 160.56 72.22V66.6ZM168.88 63.22H170.44C170.427 65.0733 170.493 66.8333 170.64 68.5C170.787 70.1667 170.993 71.7 171.26 73.1C171.527 74.4867 171.847 75.6933 172.22 76.72C172.607 77.7333 173.027 78.52 173.48 79.08C173.947 79.64 174.433 79.92 174.94 79.92C175.233 79.92 175.447 79.64 175.58 79.08C175.727 78.5067 175.827 77.5533 175.88 76.22C176.053 76.38 176.26 76.54 176.5 76.7C176.753 76.86 176.98 76.9733 177.18 77.04C177.087 78.1867 176.953 79.08 176.78 79.72C176.62 80.36 176.38 80.8067 176.06 81.06C175.753 81.3267 175.34 81.46 174.82 81.46C174.153 81.46 173.54 81.2333 172.98 80.78C172.42 80.3267 171.92 79.6867 171.48 78.86C171.053 78.0333 170.68 77.06 170.36 75.94C170.04 74.8067 169.767 73.56 169.54 72.2C169.327 70.84 169.167 69.4067 169.06 67.9C168.953 66.38 168.893 64.82 168.88 63.22ZM188.24 71.78L189.46 71.16C189.833 71.64 190.207 72.1533 190.58 72.7C190.953 73.2467 191.287 73.7933 191.58 74.34C191.887 74.8733 192.12 75.3533 192.28 75.78L190.94 76.48C190.807 76.0533 190.593 75.5667 190.3 75.02C190.02 74.4733 189.7 73.92 189.34 73.36C188.98 72.7867 188.613 72.26 188.24 71.78ZM188.34 66.82H195.96V68.24H188.34V66.82ZM195.34 66.82H196.8C196.8 66.82 196.8 66.8733 196.8 66.98C196.8 67.0733 196.8 67.18 196.8 67.3C196.8 67.42 196.793 67.5133 196.78 67.58C196.7 69.8467 196.613 71.76 196.52 73.32C196.44 74.88 196.34 76.1667 196.22 77.18C196.113 78.18 195.987 78.96 195.84 79.52C195.693 80.08 195.513 80.48 195.3 80.72C195.087 81.0133 194.853 81.2133 194.6 81.32C194.347 81.4267 194.033 81.5 193.66 81.54C193.327 81.58 192.873 81.5933 192.3 81.58C191.727 81.5667 191.14 81.5467 190.54 81.52C190.527 81.2933 190.473 81.0333 190.38 80.74C190.3 80.46 190.193 80.22 190.06 80.02C190.727 80.0733 191.34 80.1067 191.9 80.12C192.473 80.1333 192.88 80.14 193.12 80.14C193.333 80.14 193.507 80.12 193.64 80.08C193.773 80.04 193.893 79.9533 194 79.82C194.173 79.6467 194.327 79.2933 194.46 78.76C194.593 78.2133 194.713 77.4467 194.82 76.46C194.927 75.4733 195.02 74.2133 195.1 72.68C195.18 71.1467 195.26 69.3 195.34 67.14V66.82ZM189.1 63.18L190.62 63.52C190.34 64.48 190 65.4267 189.6 66.36C189.213 67.28 188.787 68.14 188.32 68.94C187.853 69.74 187.367 70.4467 186.86 71.06C186.753 70.98 186.62 70.8867 186.46 70.78C186.3 70.66 186.133 70.5467 185.96 70.44C185.787 70.32 185.633 70.2267 185.5 70.16C186.033 69.6 186.52 68.9533 186.96 68.22C187.413 67.4733 187.82 66.6667 188.18 65.8C188.54 64.9333 188.847 64.06 189.1 63.18ZM181.9 63.2L183.24 63.72C183 64.2 182.733 64.7067 182.44 65.24C182.147 65.7733 181.86 66.2867 181.58 66.78C181.3 67.26 181.027 67.6867 180.76 68.06L179.72 67.6C179.973 67.2133 180.233 66.7667 180.5 66.26C180.767 65.74 181.027 65.2133 181.28 64.68C181.533 64.1333 181.74 63.64 181.9 63.2ZM184.32 65.48L185.64 66.04C185.173 66.8 184.653 67.6 184.08 68.44C183.52 69.2667 182.953 70.0733 182.38 70.86C181.807 71.6467 181.267 72.3267 180.76 72.9L179.8 72.4C180.187 71.9467 180.587 71.4333 181 70.86C181.413 70.2867 181.82 69.6867 182.22 69.06C182.633 68.4333 183.02 67.8133 183.38 67.2C183.74 66.5867 184.053 66.0133 184.32 65.48ZM178.76 67.42L179.5 66.42C179.873 66.7267 180.253 67.0667 180.64 67.44C181.027 67.8133 181.38 68.1867 181.7 68.56C182.02 68.92 182.267 69.2467 182.44 69.54L181.64 70.7C181.453 70.38 181.2 70.0267 180.88 69.64C180.573 69.2533 180.233 68.8667 179.86 68.48C179.487 68.0933 179.12 67.74 178.76 67.42ZM183.68 70.12L184.8 69.64C185.093 70.08 185.373 70.5467 185.64 71.04C185.907 71.5333 186.14 72.0133 186.34 72.48C186.553 72.9467 186.707 73.3667 186.8 73.74L185.62 74.3C185.513 73.9267 185.36 73.5 185.16 73.02C184.96 72.54 184.733 72.0467 184.48 71.54C184.227 71.0333 183.96 70.56 183.68 70.12ZM178.72 72.14C179.613 72.1133 180.687 72.08 181.94 72.04C183.193 71.9867 184.48 71.9267 185.8 71.86V73.1C184.533 73.18 183.293 73.2533 182.08 73.32C180.867 73.3867 179.787 73.4467 178.84 73.5L178.72 72.14ZM184.2 74.92L185.32 74.54C185.613 75.1533 185.887 75.82 186.14 76.54C186.407 77.26 186.593 77.88 186.7 78.4L185.46 78.82C185.367 78.2867 185.2 77.66 184.96 76.94C184.72 76.2067 184.467 75.5333 184.2 74.92ZM179.82 74.64L181.1 74.86C180.967 75.8067 180.78 76.74 180.54 77.66C180.3 78.5667 180.02 79.34 179.7 79.98C179.607 79.9133 179.487 79.8467 179.34 79.78C179.207 79.7133 179.06 79.6467 178.9 79.58C178.753 79.5 178.62 79.44 178.5 79.4C178.847 78.7867 179.12 78.06 179.32 77.22C179.533 76.3667 179.7 75.5067 179.82 74.64ZM182.12 72.72H183.48V81.64H182.12V72.72ZM209.46 64.12C209.433 64.2933 209.407 64.4867 209.38 64.7C209.367 64.9133 209.353 65.1667 209.34 65.46C209.34 65.66 209.333 65.96 209.32 66.36C209.32 66.76 209.32 67.2133 209.32 67.72C209.32 68.2133 209.32 68.7133 209.32 69.22C209.32 69.7267 209.32 70.1933 209.32 70.62C209.32 71.2867 209.333 71.9867 209.36 72.72C209.387 73.4533 209.42 74.1667 209.46 74.86C209.5 75.5533 209.533 76.1867 209.56 76.76C209.587 77.3333 209.6 77.7867 209.6 78.12C209.6 78.5867 209.487 79.0333 209.26 79.46C209.047 79.8867 208.68 80.2333 208.16 80.5C207.653 80.78 206.96 80.92 206.08 80.92C204.64 80.92 203.54 80.6667 202.78 80.16C202.02 79.6667 201.64 78.94 201.64 77.98C201.64 77.3667 201.82 76.8333 202.18 76.38C202.553 75.9267 203.087 75.5733 203.78 75.32C204.473 75.0533 205.3 74.92 206.26 74.92C207.313 74.92 208.3 75.0467 209.22 75.3C210.153 75.54 211.007 75.8467 211.78 76.22C212.553 76.5933 213.24 76.9867 213.84 77.4C214.44 77.8 214.933 78.16 215.32 78.48L214.4 79.9C213.947 79.4733 213.42 79.0467 212.82 78.62C212.233 78.1933 211.587 77.8 210.88 77.44C210.187 77.08 209.433 76.7933 208.62 76.58C207.82 76.3533 206.967 76.24 206.06 76.24C205.1 76.24 204.367 76.4 203.86 76.72C203.367 77.04 203.12 77.4333 203.12 77.9C203.12 78.1933 203.213 78.4667 203.4 78.72C203.587 78.96 203.887 79.1533 204.3 79.3C204.713 79.4467 205.247 79.52 205.9 79.52C206.287 79.52 206.64 79.4733 206.96 79.38C207.28 79.2733 207.533 79.0933 207.72 78.84C207.92 78.5867 208.02 78.2333 208.02 77.78C208.02 77.3933 208.007 76.8933 207.98 76.28C207.967 75.6533 207.947 74.9933 207.92 74.3C207.893 73.5933 207.867 72.9133 207.84 72.26C207.827 71.6067 207.82 71.06 207.82 70.62C207.82 70.1667 207.82 69.7067 207.82 69.24C207.82 68.76 207.82 68.2867 207.82 67.82C207.82 67.3533 207.82 66.9067 207.82 66.48C207.833 66.0533 207.84 65.6667 207.84 65.32C207.84 65.16 207.833 64.9533 207.82 64.7C207.807 64.4467 207.787 64.2533 207.76 64.12H209.46ZM201.8 66.3C202.133 66.3533 202.52 66.4067 202.96 66.46C203.4 66.5133 203.86 66.5667 204.34 66.62C204.833 66.66 205.3 66.6933 205.74 66.72C206.193 66.7333 206.587 66.74 206.92 66.74C208.187 66.74 209.48 66.6933 210.8 66.6C212.133 66.5067 213.447 66.3533 214.74 66.14L214.72 67.6C213.987 67.68 213.187 67.76 212.32 67.84C211.453 67.92 210.56 67.9867 209.64 68.04C208.733 68.0933 207.833 68.12 206.94 68.12C206.473 68.12 205.92 68.1 205.28 68.06C204.64 68.02 204.007 67.9733 203.38 67.92C202.767 67.8667 202.247 67.82 201.82 67.78L201.8 66.3ZM201.7 70.54C202.06 70.5933 202.46 70.6467 202.9 70.7C203.34 70.7533 203.793 70.7933 204.26 70.82C204.727 70.8467 205.173 70.8733 205.6 70.9C206.027 70.9133 206.407 70.92 206.74 70.92C207.713 70.92 208.653 70.9 209.56 70.86C210.48 70.8067 211.38 70.74 212.26 70.66C213.153 70.5667 214.033 70.4533 214.9 70.32L214.88 71.82C214.213 71.9133 213.547 71.9933 212.88 72.06C212.227 72.1133 211.567 72.16 210.9 72.2C210.247 72.24 209.573 72.2733 208.88 72.3C208.2 72.3133 207.48 72.32 206.72 72.32C206.267 72.32 205.74 72.3067 205.14 72.28C204.553 72.2533 203.953 72.22 203.34 72.18C202.74 72.14 202.2 72.0933 201.72 72.04L201.7 70.54ZM219.58 66.84C219.953 66.8267 220.293 66.8133 220.6 66.8C220.92 66.7733 221.173 66.7533 221.36 66.74C221.68 66.7 222.14 66.6533 222.74 66.6C223.353 66.5333 224.053 66.4667 224.84 66.4C225.627 66.32 226.473 66.24 227.38 66.16C228.287 66.08 229.2 66 230.12 65.92C230.853 65.8533 231.547 65.8 232.2 65.76C232.853 65.7067 233.46 65.6667 234.02 65.64C234.58 65.6 235.08 65.5733 235.52 65.56V67.16C235.147 67.16 234.72 67.1667 234.24 67.18C233.76 67.1933 233.287 67.22 232.82 67.26C232.353 67.3 231.947 67.3733 231.6 67.48C230.893 67.7067 230.253 68.0533 229.68 68.52C229.12 68.9733 228.64 69.5 228.24 70.1C227.84 70.7 227.533 71.32 227.32 71.96C227.12 72.6 227.02 73.22 227.02 73.82C227.02 74.5933 227.153 75.2733 227.42 75.86C227.687 76.4333 228.047 76.92 228.5 77.32C228.967 77.72 229.493 78.0467 230.08 78.3C230.667 78.5533 231.287 78.7467 231.94 78.88C232.607 79 233.267 79.0667 233.92 79.08L233.34 80.74C232.593 80.7133 231.847 80.6067 231.1 80.42C230.353 80.2467 229.64 79.9933 228.96 79.66C228.28 79.3133 227.673 78.88 227.14 78.36C226.607 77.84 226.187 77.2333 225.88 76.54C225.573 75.8467 225.42 75.0533 225.42 74.16C225.42 73.12 225.6 72.16 225.96 71.28C226.333 70.3867 226.807 69.6067 227.38 68.94C227.953 68.2733 228.547 67.76 229.16 67.4C228.733 67.4533 228.2 67.5133 227.56 67.58C226.933 67.6467 226.26 67.72 225.54 67.8C224.82 67.8667 224.093 67.9467 223.36 68.04C222.64 68.1333 221.967 68.2267 221.34 68.32C220.713 68.4 220.187 68.4867 219.76 68.58L219.58 66.84ZM232.64 69.62C232.787 69.8333 232.96 70.1067 233.16 70.44C233.373 70.76 233.58 71.0933 233.78 71.44C233.98 71.7733 234.147 72.0933 234.28 72.4L233.26 72.88C233.033 72.3867 232.78 71.9 232.5 71.42C232.22 70.9267 231.927 70.4733 231.62 70.06L232.64 69.62ZM234.82 68.78C234.98 68.9933 235.167 69.26 235.38 69.58C235.593 69.9 235.8 70.2333 236 70.58C236.213 70.9133 236.4 71.2333 236.56 71.54L235.52 72.04C235.28 71.5467 235.013 71.06 234.72 70.58C234.44 70.1 234.147 69.6533 233.84 69.24L234.82 68.78ZM249.28 66.34C249.147 67.38 248.973 68.4667 248.76 69.6C248.56 70.7333 248.3 71.8333 247.98 72.9C247.58 74.2733 247.133 75.42 246.64 76.34C246.16 77.26 245.64 77.9533 245.08 78.42C244.52 78.8867 243.933 79.12 243.32 79.12C242.733 79.12 242.167 78.9067 241.62 78.48C241.073 78.0533 240.627 77.44 240.28 76.64C239.933 75.8267 239.76 74.8733 239.76 73.78C239.76 72.6867 239.98 71.6533 240.42 70.68C240.873 69.7067 241.493 68.8467 242.28 68.1C243.08 67.34 244.013 66.74 245.08 66.3C246.147 65.86 247.287 65.64 248.5 65.64C249.673 65.64 250.727 65.8333 251.66 66.22C252.607 66.6067 253.413 67.14 254.08 67.82C254.747 68.4867 255.26 69.2667 255.62 70.16C255.98 71.04 256.16 71.9867 256.16 73C256.16 74.4 255.86 75.6333 255.26 76.7C254.673 77.7667 253.82 78.6333 252.7 79.3C251.593 79.9667 250.247 80.4067 248.66 80.62L247.72 79.14C248.04 79.1 248.347 79.06 248.64 79.02C248.933 78.98 249.2 78.9333 249.44 78.88C250.08 78.7333 250.7 78.5067 251.3 78.2C251.913 77.88 252.46 77.48 252.94 77C253.42 76.5067 253.8 75.9267 254.08 75.26C254.373 74.58 254.52 73.8067 254.52 72.94C254.52 72.1267 254.387 71.3733 254.12 70.68C253.853 69.9733 253.46 69.3533 252.94 68.82C252.42 68.2867 251.787 67.8667 251.04 67.56C250.293 67.2533 249.44 67.1 248.48 67.1C247.387 67.1 246.393 67.3 245.5 67.7C244.62 68.1 243.867 68.6267 243.24 69.28C242.627 69.92 242.153 70.6267 241.82 71.4C241.487 72.16 241.32 72.9067 241.32 73.64C241.32 74.48 241.427 75.1733 241.64 75.72C241.867 76.2533 242.133 76.6467 242.44 76.9C242.76 77.1533 243.073 77.28 243.38 77.28C243.7 77.28 244.027 77.1267 244.36 76.82C244.693 76.5 245.033 75.9933 245.38 75.3C245.727 74.5933 246.067 73.68 246.4 72.56C246.693 71.6 246.94 70.58 247.14 69.5C247.353 68.42 247.507 67.36 247.6 66.32L249.28 66.34ZM123 91.3V92.72H133.04V91.3H123ZM123 88.9V90.3H133.04V88.9H123ZM121.56 87.84H134.54V93.78H121.56V87.84ZM119.16 94.9H136.8V96.16H119.16V94.9ZM128.06 97.4H135.16V98.62H128.06V97.4ZM121.78 97.52H126.7V98.66H121.78V97.52ZM121.78 100.06H126.7V101.18H121.78V100.06ZM130.14 98.52C130.727 99.96 131.633 101.2 132.86 102.24C134.1 103.267 135.567 103.993 137.26 104.42C137.167 104.513 137.06 104.627 136.94 104.76C136.82 104.907 136.707 105.047 136.6 105.18C136.507 105.327 136.427 105.46 136.36 105.58C134.6 105.06 133.087 104.227 131.82 103.08C130.567 101.92 129.607 100.52 128.94 98.88L130.14 98.52ZM134.7 97.4H134.98L135.24 97.34L136.16 97.72C135.72 99.08 135.093 100.267 134.28 101.28C133.467 102.293 132.533 103.153 131.48 103.86C130.427 104.553 129.32 105.093 128.16 105.48C128.08 105.307 127.953 105.1 127.78 104.86C127.62 104.62 127.467 104.433 127.32 104.3C128.12 104.073 128.9 103.753 129.66 103.34C130.433 102.927 131.147 102.44 131.8 101.88C132.467 101.32 133.047 100.687 133.54 99.98C134.047 99.26 134.433 98.48 134.7 97.64V97.4ZM118.98 103.12C119.633 103.053 120.373 102.98 121.2 102.9C122.04 102.82 122.927 102.727 123.86 102.62C124.793 102.513 125.727 102.407 126.66 102.3L126.68 103.54C125.32 103.713 123.98 103.88 122.66 104.04C121.34 104.2 120.16 104.34 119.12 104.46L118.98 103.12ZM125.92 95.3H127.36V105.6H125.92V95.3ZM120.9 95.34H122.28V103.46H120.9V95.34ZM146.82 88.08H157V89.46H146.82V88.08ZM145.92 103.76H157.2V105.16H145.92V103.76ZM148.22 99L149.5 98.68C149.673 99.1333 149.833 99.62 149.98 100.14C150.14 100.647 150.273 101.147 150.38 101.64C150.487 102.12 150.56 102.553 150.6 102.94L149.22 103.28C149.193 102.893 149.127 102.453 149.02 101.96C148.927 101.467 148.807 100.96 148.66 100.44C148.527 99.92 148.38 99.44 148.22 99ZM154.04 98.56L155.56 98.92C155.387 99.4133 155.2 99.94 155 100.5C154.813 101.047 154.627 101.573 154.44 102.08C154.267 102.587 154.093 103.027 153.92 103.4L152.64 103.08C152.813 102.693 152.987 102.233 153.16 101.7C153.333 101.167 153.5 100.627 153.66 100.08C153.82 99.5333 153.947 99.0267 154.04 98.56ZM149.02 93.02V96.54H154.72V93.02H149.02ZM147.62 91.66H156.16V97.86H147.62V91.66ZM142.54 90.58H144V94.54C144 95.3533 143.947 96.2467 143.84 97.22C143.733 98.18 143.533 99.1533 143.24 100.14C142.947 101.127 142.52 102.08 141.96 103C141.413 103.92 140.687 104.76 139.78 105.52C139.713 105.413 139.613 105.287 139.48 105.14C139.36 105.007 139.233 104.873 139.1 104.74C138.967 104.62 138.847 104.527 138.74 104.46C139.593 103.753 140.273 102.987 140.78 102.16C141.287 101.32 141.667 100.46 141.92 99.58C142.173 98.6867 142.34 97.8133 142.42 96.96C142.5 96.0933 142.54 95.28 142.54 94.52V90.58ZM140.72 89.8H146.64V91.18H140.72V89.8ZM138.88 95.22H146.86V96.64H138.88V95.22ZM143.56 97.84C143.693 97.96 143.873 98.1467 144.1 98.4C144.34 98.6533 144.6 98.94 144.88 99.26C145.173 99.58 145.46 99.9067 145.74 100.24C146.02 100.56 146.273 100.853 146.5 101.12C146.727 101.373 146.887 101.56 146.98 101.68L146.02 102.92C145.847 102.653 145.607 102.327 145.3 101.94C145.007 101.54 144.693 101.127 144.36 100.7C144.027 100.273 143.7 99.88 143.38 99.52C143.073 99.1467 142.827 98.8533 142.64 98.64L143.56 97.84ZM140.9 87.28L142.32 87.54C142.16 88.4067 141.96 89.26 141.72 90.1C141.493 90.9267 141.227 91.7 140.92 92.42C140.627 93.1267 140.3 93.76 139.94 94.32C139.86 94.2533 139.74 94.1733 139.58 94.08C139.42 93.9867 139.253 93.9 139.08 93.82C138.92 93.7267 138.773 93.6533 138.64 93.6C139.2 92.8267 139.667 91.88 140.04 90.76C140.413 89.64 140.7 88.48 140.9 87.28ZM170.22 88.2H175.76V89.56H170.22V88.2ZM170.22 92.78H175.76V94.12H170.22V92.78ZM170.2 97.44H175.8V98.8H170.2V97.44ZM175.1 88.2H176.54V103.68C176.54 104.107 176.487 104.44 176.38 104.68C176.273 104.933 176.073 105.12 175.78 105.24C175.5 105.36 175.113 105.433 174.62 105.46C174.14 105.5 173.533 105.52 172.8 105.52C172.773 105.32 172.713 105.073 172.62 104.78C172.527 104.5 172.427 104.26 172.32 104.06C172.853 104.087 173.347 104.1 173.8 104.1C174.253 104.1 174.553 104.093 174.7 104.08C174.847 104.067 174.947 104.033 175 103.98C175.067 103.927 175.1 103.82 175.1 103.66V88.2ZM169.6 88.2H171V95.46C171 96.22 170.973 97.0467 170.92 97.94C170.88 98.8333 170.793 99.74 170.66 100.66C170.527 101.58 170.32 102.473 170.04 103.34C169.773 104.193 169.413 104.973 168.96 105.68C168.88 105.6 168.767 105.5 168.62 105.38C168.473 105.26 168.32 105.147 168.16 105.04C168.013 104.947 167.88 104.873 167.76 104.82C168.32 103.927 168.727 102.94 168.98 101.86C169.247 100.78 169.413 99.6867 169.48 98.58C169.56 97.46 169.6 96.42 169.6 95.46V88.2ZM159.04 89.86H168.62V91.2H159.04V89.86ZM161.38 92.98H166.46V94.18H161.38V92.98ZM161.4 96.14H166.48V97.36H161.4V96.14ZM158.76 99.38H168.62V100.72H158.76V99.38ZM160.74 87.44H162.1V99.92H160.74V87.44ZM165.74 87.44H167.14V99.92H165.74V87.44ZM161.56 101.14L162.98 101.54C162.62 102.3 162.167 103.047 161.62 103.78C161.087 104.5 160.553 105.107 160.02 105.6C159.927 105.52 159.807 105.42 159.66 105.3C159.513 105.193 159.36 105.087 159.2 104.98C159.053 104.873 158.913 104.787 158.78 104.72C159.34 104.267 159.867 103.727 160.36 103.1C160.853 102.473 161.253 101.82 161.56 101.14ZM164.42 101.76L165.58 101.14C165.847 101.447 166.113 101.78 166.38 102.14C166.66 102.487 166.92 102.833 167.16 103.18C167.4 103.527 167.587 103.84 167.72 104.12L166.48 104.84C166.373 104.56 166.2 104.247 165.96 103.9C165.733 103.54 165.487 103.173 165.22 102.8C164.953 102.413 164.687 102.067 164.42 101.76ZM184.96 99.46H191.02V100.62H184.96V99.46ZM184.88 96.44H191.7V103.74H184.88V102.56H190.3V97.62H184.88V96.44ZM184.24 96.44H185.6V104.76H184.24V96.44ZM180.54 90.9H186.1V92H180.54V90.9ZM189.76 90.9H195.44V92H189.76V90.9ZM194.8 88.06H196.32V103.62C196.32 104.087 196.253 104.453 196.12 104.72C196 104.987 195.773 105.187 195.44 105.32C195.12 105.453 194.68 105.533 194.12 105.56C193.573 105.587 192.887 105.6 192.06 105.6C192.033 105.453 191.993 105.287 191.94 105.1C191.887 104.913 191.82 104.727 191.74 104.54C191.673 104.353 191.607 104.193 191.54 104.06C191.94 104.073 192.327 104.08 192.7 104.08C193.087 104.08 193.427 104.08 193.72 104.08C194.013 104.08 194.22 104.08 194.34 104.08C194.513 104.067 194.633 104.027 194.7 103.96C194.767 103.893 194.8 103.773 194.8 103.6V88.06ZM180.66 88.06H187.06V94.92H180.66V93.78H185.66V89.22H180.66V88.06ZM195.56 88.06V89.22H190.3V93.8H195.56V94.96H188.88V88.06H195.56ZM179.8 88.06H181.3V105.62H179.8V88.06Z" fill="#191E1E"/>
<g clip-path="url(#clip0_1322_3438)">
<path d="M164.334 211H153.778M141.111 234.575C141.112 231.129 142.164 227.76 144.136 224.895C146.108 222.03 148.91 219.797 152.189 218.478C155.468 217.159 159.076 216.814 162.557 217.486C166.038 218.159 169.235 219.818 171.745 222.254M171.745 222.254C174.254 224.691 175.963 227.796 176.655 231.176C177.348 234.556 176.992 238.059 175.634 241.243C174.276 244.427 171.976 247.148 169.025 249.063C166.075 250.978 162.605 252 159.056 252H139M171.745 222.254L174.891 219.2M149.556 245.85H139M145.334 239.7H139M159.056 234.575L166.446 227.4" stroke="#7D6446" stroke-width="3.5" stroke-linecap="round" stroke-linejoin="round"/>
<path d="M89.249 142.76V132.68L114.359 127.01V191H103.829V138.71L89.249 142.76ZM123.686 186.41C123.686 184.67 124.286 183.2 125.486 182C126.746 180.74 128.246 180.11 129.986 180.11C131.846 180.11 133.376 180.74 134.576 182C135.776 183.2 136.376 184.67 136.376 186.41C136.376 188.09 135.776 189.56 134.576 190.82C133.376 192.08 131.846 192.71 129.986 192.71C128.246 192.71 126.746 192.08 125.486 190.82C124.286 189.56 123.686 188.09 123.686 186.41ZM136.519 178.94L172.069 128H178.459V191H167.569V175.16L168.199 174.17V146.99L152.089 170.57H173.959L175.489 169.76H188.359V178.94H136.519Z" fill="#191E1E"/>
<path d="M202.79 173.14C202.723 173.327 202.657 173.507 202.59 173.68C202.523 173.84 202.463 174.007 202.41 174.18C202.317 174.46 202.197 174.78 202.05 175.14C201.903 175.487 201.75 175.833 201.59 176.18C201.43 176.513 201.277 176.807 201.13 177.06C200.89 177.5 200.59 177.967 200.23 178.46C199.883 178.94 199.53 179.393 199.17 179.82C198.81 180.233 198.47 180.573 198.15 180.84L196.69 179.98C197.103 179.673 197.497 179.32 197.87 178.92C198.257 178.507 198.603 178.087 198.91 177.66C199.23 177.233 199.497 176.847 199.71 176.5C199.977 176.06 200.197 175.62 200.37 175.18C200.543 174.74 200.683 174.327 200.79 173.94C200.843 173.753 200.89 173.56 200.93 173.36C200.97 173.147 200.997 172.947 201.01 172.76L202.79 173.14ZM200.79 175.94C200.963 175.94 201.283 175.94 201.75 175.94C202.217 175.94 202.763 175.94 203.39 175.94C204.03 175.94 204.69 175.94 205.37 175.94C206.05 175.94 206.697 175.94 207.31 175.94C207.923 175.94 208.443 175.94 208.87 175.94C209.31 175.94 209.59 175.94 209.71 175.94C209.923 175.94 210.177 175.933 210.47 175.92C210.763 175.907 211.03 175.88 211.27 175.84V177.42C211.003 177.393 210.723 177.38 210.43 177.38C210.15 177.367 209.91 177.36 209.71 177.36C209.59 177.36 209.31 177.36 208.87 177.36C208.443 177.36 207.917 177.36 207.29 177.36C206.677 177.36 206.023 177.36 205.33 177.36C204.65 177.36 203.99 177.36 203.35 177.36C202.71 177.36 202.143 177.36 201.65 177.36C201.17 177.36 200.837 177.36 200.65 177.36L200.79 175.94ZM206.81 176.74C206.743 178.407 206.503 179.867 206.09 181.12C205.677 182.36 205.097 183.433 204.35 184.34C203.617 185.233 202.73 185.993 201.69 186.62L200.11 185.58C200.323 185.487 200.59 185.347 200.91 185.16C201.23 184.973 201.49 184.807 201.69 184.66C202.103 184.327 202.51 183.933 202.91 183.48C203.323 183.013 203.697 182.467 204.03 181.84C204.377 181.213 204.657 180.48 204.87 179.64C205.097 178.8 205.223 177.833 205.25 176.74H206.81ZM218.89 169.26H229.31V170.72H218.89V169.26ZM218.89 174.08H229.41V175.5H218.89V174.08ZM218.73 178.9H229.31V180.36H218.73V178.9ZM217.95 169.26H219.47V175.42C219.47 176.287 219.423 177.213 219.33 178.2C219.25 179.187 219.077 180.187 218.81 181.2C218.543 182.2 218.143 183.167 217.61 184.1C217.09 185.033 216.397 185.873 215.53 186.62C215.463 186.513 215.357 186.387 215.21 186.24C215.077 186.093 214.937 185.953 214.79 185.82C214.643 185.7 214.51 185.607 214.39 185.54C215.203 184.82 215.843 184.047 216.31 183.22C216.79 182.38 217.143 181.513 217.37 180.62C217.61 179.727 217.763 178.84 217.83 177.96C217.91 177.067 217.95 176.22 217.95 175.42V169.26ZM228.65 169.26H230.23V184.38C230.23 184.913 230.15 185.32 229.99 185.6C229.83 185.88 229.563 186.087 229.19 186.22C228.803 186.353 228.263 186.433 227.57 186.46C226.877 186.5 225.997 186.52 224.93 186.52C224.903 186.36 224.85 186.187 224.77 186C224.703 185.813 224.623 185.62 224.53 185.42C224.45 185.233 224.37 185.073 224.29 184.94C224.85 184.953 225.383 184.967 225.89 184.98C226.41 184.98 226.857 184.98 227.23 184.98C227.617 184.967 227.883 184.96 228.03 184.96C228.27 184.947 228.43 184.9 228.51 184.82C228.603 184.727 228.65 184.573 228.65 184.36V169.26Z" fill="#191E1E"/>
</g>
<defs>
<clipPath id="clip0_1322_3438">
<rect width="256" height="128" fill="white" transform="translate(30 128)"/>
</clipPath>
</defs>
</svg>
