<svg width="172" height="172" viewBox="0 0 172 172" fill="none" xmlns="http://www.w3.org/2000/svg">
<mask id="path-1-inside-1_1322_2883" fill="white">
<path d="M0 0H172V172H0V0Z"/>
</mask>
<path d="M0 0H172V172H0V0Z" fill="#FAF9F7"/>
<path d="M0 0V1H172V0V-1H0V0Z" fill="#191E1E" mask="url(#path-1-inside-1_1322_2883)"/>
<path d="M57.575 33.405H69.395V34.53H57.575V33.405ZM56.78 39.78H70.235V40.905H56.78V39.78ZM58.61 35.55L59.63 35.25C59.83 35.61 60.025 35.995 60.215 36.405C60.405 36.815 60.575 37.22 60.725 37.62C60.885 38.01 60.995 38.35 61.055 38.64L59.99 39.015C59.92 38.715 59.81 38.37 59.66 37.98C59.52 37.58 59.36 37.17 59.18 36.75C59 36.32 58.81 35.92 58.61 35.55ZM67.325 35.175L68.51 35.505C68.33 35.915 68.13 36.335 67.91 36.765C67.7 37.195 67.49 37.61 67.28 38.01C67.07 38.41 66.865 38.76 66.665 39.06L65.69 38.745C65.88 38.425 66.075 38.06 66.275 37.65C66.485 37.23 66.68 36.805 66.86 36.375C67.04 35.935 67.195 35.535 67.325 35.175ZM62.885 33.84H64.055V46.185H62.885V33.84ZM77.57 37.92H82.235V38.955H77.57V37.92ZM76.88 42.765C77.34 42.605 77.87 42.42 78.47 42.21C79.07 42 79.71 41.77 80.39 41.52C81.07 41.27 81.745 41.02 82.415 40.77L82.61 41.745C81.7 42.105 80.775 42.47 79.835 42.84C78.905 43.21 78.075 43.535 77.345 43.815L76.88 42.765ZM78.2 34.89H84.38V35.97H78.2V34.89ZM84.02 34.89H85.145C85.145 34.89 85.145 34.93 85.145 35.01C85.145 35.08 85.145 35.165 85.145 35.265C85.145 35.365 85.14 35.44 85.13 35.49C85.08 37.22 85.025 38.69 84.965 39.9C84.905 41.1 84.835 42.085 84.755 42.855C84.675 43.615 84.58 44.21 84.47 44.64C84.37 45.07 84.245 45.375 84.095 45.555C83.925 45.775 83.745 45.925 83.555 46.005C83.365 46.095 83.135 46.155 82.865 46.185C82.605 46.215 82.26 46.225 81.83 46.215C81.4 46.215 80.96 46.2 80.51 46.17C80.5 46 80.46 45.805 80.39 45.585C80.33 45.375 80.245 45.19 80.135 45.03C80.635 45.08 81.095 45.105 81.515 45.105C81.945 45.115 82.25 45.12 82.43 45.12C82.58 45.13 82.7 45.115 82.79 45.075C82.89 45.045 82.985 44.98 83.075 44.88C83.195 44.75 83.3 44.485 83.39 44.085C83.49 43.675 83.575 43.09 83.645 42.33C83.725 41.57 83.795 40.605 83.855 39.435C83.915 38.255 83.97 36.825 84.02 35.145V34.89ZM78.605 32.4L79.745 32.655C79.525 33.415 79.26 34.16 78.95 34.89C78.65 35.61 78.315 36.285 77.945 36.915C77.585 37.535 77.205 38.085 76.805 38.565C76.735 38.495 76.64 38.415 76.52 38.325C76.4 38.235 76.275 38.145 76.145 38.055C76.025 37.965 75.915 37.895 75.815 37.845C76.435 37.185 76.98 36.375 77.45 35.415C77.93 34.455 78.315 33.45 78.605 32.4ZM71.78 35.895H76.535V36.96H71.78V35.895ZM73.67 32.49H74.765V42.3H73.67V32.49ZM71.51 42.585C71.94 42.425 72.43 42.24 72.98 42.03C73.54 41.81 74.135 41.575 74.765 41.325C75.395 41.075 76.02 40.82 76.64 40.56L76.88 41.625C76.02 41.995 75.15 42.365 74.27 42.735C73.4 43.105 72.615 43.43 71.915 43.71L71.51 42.585ZM90.155 32.34L91.295 32.64C91.015 33.37 90.685 34.085 90.305 34.785C89.935 35.475 89.53 36.12 89.09 36.72C88.65 37.31 88.195 37.83 87.725 38.28C87.655 38.22 87.56 38.145 87.44 38.055C87.33 37.955 87.21 37.86 87.08 37.77C86.96 37.68 86.85 37.61 86.75 37.56C87.23 37.14 87.68 36.66 88.1 36.12C88.53 35.57 88.92 34.975 89.27 34.335C89.62 33.685 89.915 33.02 90.155 32.34ZM89.93 34.215H99.605V35.295H89.375L89.93 34.215ZM89.195 37.605H99.26V38.67H90.32V42.21H89.195V37.605ZM86.72 41.655H100.31V42.735H86.72V41.655ZM93.68 34.785H94.835V46.2H93.68V34.785ZM101.525 42.12C102.115 41.98 102.825 41.805 103.655 41.595C104.485 41.375 105.33 41.15 106.19 40.92L106.34 41.985C105.54 42.215 104.74 42.44 103.94 42.66C103.15 42.88 102.43 43.08 101.78 43.26L101.525 42.12ZM105.68 32.46H106.775V46.185H105.68V32.46ZM102.62 34.125H103.685V42.27H102.62V34.125ZM107.435 33.555H114.14V34.65H107.435V33.555ZM113.84 33.555H114.02L114.23 33.51L114.965 33.735C114.675 35.845 114.19 37.71 113.51 39.33C112.83 40.94 112.005 42.315 111.035 43.455C110.065 44.595 108.99 45.5 107.81 46.17C107.76 46.08 107.69 45.97 107.6 45.84C107.51 45.72 107.415 45.6 107.315 45.48C107.225 45.37 107.135 45.285 107.045 45.225C107.865 44.795 108.64 44.225 109.37 43.515C110.1 42.805 110.76 41.965 111.35 40.995C111.95 40.015 112.46 38.925 112.88 37.725C113.31 36.525 113.63 35.22 113.84 33.81V33.555ZM109.235 34.74C109.545 36.34 109.97 37.83 110.51 39.21C111.06 40.58 111.755 41.78 112.595 42.81C113.435 43.84 114.44 44.645 115.61 45.225C115.53 45.295 115.435 45.385 115.325 45.495C115.225 45.605 115.13 45.72 115.04 45.84C114.95 45.97 114.87 46.085 114.8 46.185C113.58 45.515 112.54 44.635 111.68 43.545C110.82 42.445 110.105 41.17 109.535 39.72C108.975 38.26 108.52 36.665 108.17 34.935L109.235 34.74Z" fill="#191E1E"/>
<path d="M14.8447 86.2V80.6L28.7947 77.45V113H22.9447V83.95L14.8447 86.2ZM39.1264 107.5L44.5264 109.05L38.7264 121.55L34.7264 120.45L39.1264 107.5ZM49.449 86.45C49.449 84.65 49.9157 83.0833 50.849 81.75C51.7824 80.3833 53.0324 79.3167 54.599 78.55C56.199 77.7833 57.9824 77.4 59.949 77.4C61.9157 77.4 63.6824 77.7833 65.249 78.55C66.849 79.3167 68.1157 80.3833 69.049 81.75C70.0157 83.0833 70.499 84.65 70.499 86.45C70.499 87.9167 70.2157 89.2167 69.649 90.35C69.0824 91.45 68.3157 92.3833 67.349 93.15C66.3824 93.9167 65.2657 94.5 63.999 94.9C62.7324 95.3 61.3824 95.5 59.949 95.5C58.5157 95.5 57.1657 95.3 55.899 94.9C54.6324 94.5 53.5157 93.9167 52.549 93.15C51.5824 92.3833 50.8157 91.45 50.249 90.35C49.7157 89.2167 49.449 87.9167 49.449 86.45ZM55.049 87.05C55.049 88.05 55.2657 88.9167 55.699 89.65C56.1657 90.3833 56.7657 90.9667 57.499 91.4C58.2324 91.8 59.049 92 59.949 92C60.849 92 61.6657 91.8 62.399 91.4C63.1657 90.9667 63.7657 90.3833 64.199 89.65C64.6324 88.9167 64.849 88.05 64.849 87.05C64.849 86.0833 64.6324 85.2167 64.199 84.45C63.799 83.6833 63.2324 83.1 62.499 82.7C61.7657 82.2667 60.9157 82.05 59.949 82.05C59.0157 82.05 58.1657 82.2667 57.399 82.7C56.6657 83.1 56.0824 83.6833 55.649 84.45C55.249 85.2167 55.049 86.0833 55.049 87.05ZM48.199 103.5C48.199 101.8 48.5324 100.317 49.199 99.05C49.8657 97.7833 50.7657 96.7333 51.899 95.9C53.0324 95.0333 54.299 94.4 55.699 94C57.099 93.6 58.5157 93.4 59.949 93.4C61.3824 93.4 62.799 93.6 64.199 94C65.599 94.4 66.8657 95.0333 67.999 95.9C69.1324 96.7333 70.0324 97.7833 70.699 99.05C71.399 100.317 71.749 101.8 71.749 103.5C71.749 104.967 71.4324 106.317 70.799 107.55C70.199 108.75 69.349 109.817 68.249 110.75C67.1824 111.65 65.9324 112.35 64.499 112.85C63.099 113.35 61.5824 113.6 59.949 113.6C58.3157 113.6 56.7824 113.35 55.349 112.85C53.949 112.35 52.699 111.65 51.599 110.75C50.5324 109.817 49.699 108.75 49.099 107.55C48.499 106.317 48.199 104.967 48.199 103.5ZM53.999 102.7C53.999 103.967 54.2657 105.05 54.799 105.95C55.3657 106.817 56.099 107.483 56.999 107.95C57.9324 108.417 58.9157 108.65 59.949 108.65C60.9824 108.65 61.949 108.417 62.849 107.95C63.7824 107.483 64.5324 106.817 65.099 105.95C65.6657 105.05 65.949 103.967 65.949 102.7C65.949 101.6 65.6657 100.6 65.099 99.7C64.5324 98.8 63.7824 98.1 62.849 97.6C61.949 97.0667 60.9824 96.8 59.949 96.8C58.9157 96.8 57.9324 97.0667 56.999 97.6C56.099 98.1 55.3657 98.8 54.799 99.7C54.2657 100.6 53.999 101.6 53.999 102.7ZM79.7053 95.5C79.7053 97.3667 79.8886 99.0833 80.2553 100.65C80.6219 102.217 81.1386 103.567 81.8053 104.7C82.5053 105.833 83.3386 106.717 84.3053 107.35C85.2719 107.95 86.3386 108.25 87.5053 108.25C88.7386 108.25 89.8219 107.95 90.7553 107.35C91.7219 106.717 92.5386 105.833 93.2053 104.7C93.9053 103.567 94.4386 102.217 94.8053 100.65C95.1719 99.0833 95.3553 97.3667 95.3553 95.5C95.3553 93.6333 95.1719 91.9167 94.8053 90.35C94.4386 88.7833 93.9053 87.4333 93.2053 86.3C92.5386 85.1667 91.7219 84.3 90.7553 83.7C89.8219 83.0667 88.7386 82.75 87.5053 82.75C86.3386 82.75 85.2719 83.0667 84.3053 83.7C83.3386 84.3 82.5053 85.1667 81.8053 86.3C81.1386 87.4333 80.6219 88.7833 80.2553 90.35C79.8886 91.9167 79.7053 93.6333 79.7053 95.5ZM73.9053 95.5C73.9053 91.8667 74.4719 88.7 75.6053 86C76.7719 83.3 78.3719 81.2 80.4053 79.7C82.4719 78.2 84.8386 77.45 87.5053 77.45C90.2386 77.45 92.6219 78.2 94.6553 79.7C96.7219 81.2 98.3219 83.3 99.4553 86C100.589 88.7 101.155 91.8667 101.155 95.5C101.155 99.1333 100.589 102.3 99.4553 105C98.3219 107.7 96.7219 109.8 94.6553 111.3C92.6219 112.8 90.2386 113.55 87.5053 113.55C84.8386 113.55 82.4719 112.8 80.4053 111.3C78.3719 109.8 76.7719 107.7 75.6053 105C74.4719 102.3 73.9053 99.1333 73.9053 95.5ZM108.455 95.5C108.455 97.3667 108.639 99.0833 109.005 100.65C109.372 102.217 109.889 103.567 110.555 104.7C111.255 105.833 112.089 106.717 113.055 107.35C114.022 107.95 115.089 108.25 116.255 108.25C117.489 108.25 118.572 107.95 119.505 107.35C120.472 106.717 121.289 105.833 121.955 104.7C122.655 103.567 123.189 102.217 123.555 100.65C123.922 99.0833 124.105 97.3667 124.105 95.5C124.105 93.6333 123.922 91.9167 123.555 90.35C123.189 88.7833 122.655 87.4333 121.955 86.3C121.289 85.1667 120.472 84.3 119.505 83.7C118.572 83.0667 117.489 82.75 116.255 82.75C115.089 82.75 114.022 83.0667 113.055 83.7C112.089 84.3 111.255 85.1667 110.555 86.3C109.889 87.4333 109.372 88.7833 109.005 90.35C108.639 91.9167 108.455 93.6333 108.455 95.5ZM102.655 95.5C102.655 91.8667 103.222 88.7 104.355 86C105.522 83.3 107.122 81.2 109.155 79.7C111.222 78.2 113.589 77.45 116.255 77.45C118.989 77.45 121.372 78.2 123.405 79.7C125.472 81.2 127.072 83.3 128.205 86C129.339 88.7 129.905 91.8667 129.905 95.5C129.905 99.1333 129.339 102.3 128.205 105C127.072 107.7 125.472 109.8 123.405 111.3C121.372 112.8 118.989 113.55 116.255 113.55C113.589 113.55 111.222 112.8 109.155 111.3C107.122 109.8 105.522 107.7 104.355 105C103.222 102.3 102.655 99.1333 102.655 95.5Z" fill="#191E1E"/>
<path d="M129.858 103.82H140.382V104.708H129.858V103.82ZM133.614 107.156H138.666V108.032H133.614V107.156ZM138.354 107.156H139.278C139.278 107.156 139.278 107.184 139.278 107.24C139.278 107.296 139.274 107.36 139.266 107.432C139.266 107.504 139.266 107.56 139.266 107.6C139.218 108.576 139.162 109.404 139.098 110.084C139.042 110.764 138.982 111.332 138.918 111.788C138.854 112.236 138.778 112.592 138.69 112.856C138.602 113.12 138.498 113.312 138.378 113.432C138.242 113.584 138.094 113.688 137.934 113.744C137.774 113.808 137.578 113.848 137.346 113.864C137.122 113.888 136.814 113.896 136.422 113.888C136.038 113.88 135.638 113.864 135.222 113.84C135.214 113.704 135.182 113.552 135.126 113.384C135.07 113.224 134.998 113.08 134.91 112.952C135.358 112.992 135.778 113.016 136.17 113.024C136.562 113.032 136.838 113.036 136.998 113.036C137.142 113.044 137.258 113.036 137.346 113.012C137.434 112.996 137.51 112.956 137.574 112.892C137.71 112.772 137.822 112.512 137.91 112.112C138.006 111.712 138.086 111.124 138.15 110.348C138.222 109.572 138.29 108.564 138.354 107.324V107.156ZM133.11 104.54H134.046C134.03 105.22 133.994 105.92 133.938 106.64C133.89 107.352 133.798 108.06 133.662 108.764C133.526 109.468 133.322 110.144 133.05 110.792C132.778 111.432 132.406 112.024 131.934 112.568C131.47 113.112 130.886 113.584 130.182 113.984C130.11 113.864 130.01 113.74 129.882 113.612C129.754 113.484 129.634 113.376 129.522 113.288C130.202 112.928 130.758 112.496 131.19 111.992C131.63 111.48 131.974 110.924 132.222 110.324C132.478 109.724 132.666 109.1 132.786 108.452C132.906 107.796 132.986 107.136 133.026 106.472C133.066 105.808 133.094 105.164 133.11 104.54ZM141.966 103.736H151.374V104.624H142.878V113.972H141.966V103.736ZM150.966 103.736H151.878V112.76C151.878 113.048 151.838 113.268 151.758 113.42C151.678 113.58 151.534 113.704 151.326 113.792C151.126 113.864 150.85 113.908 150.498 113.924C150.154 113.94 149.71 113.948 149.166 113.948C149.158 113.868 149.134 113.772 149.094 113.66C149.054 113.548 149.01 113.436 148.962 113.324C148.922 113.22 148.878 113.128 148.83 113.048C149.102 113.056 149.362 113.06 149.61 113.06C149.866 113.06 150.086 113.06 150.27 113.06C150.454 113.06 150.586 113.06 150.666 113.06C150.778 113.052 150.854 113.028 150.894 112.988C150.942 112.94 150.966 112.864 150.966 112.76V103.736ZM142.47 108.164H151.398V109.052H142.47V108.164ZM146.406 104.18H147.306V108.608H146.406V104.18Z" fill="#191E1E"/>
</svg>
