<svg width="316" height="316" viewBox="0 0 316 316" fill="none" xmlns="http://www.w3.org/2000/svg">
<mask id="path-1-inside-1_1081_17770" fill="white">
<path d="M0 0H316V316H0V0Z"/>
</mask>
<path d="M0 0H316V316H0V0Z" fill="#FAF9F7"/>
<path d="M0 0V1H316V0V-1H0V0Z" fill="#191E1E" mask="url(#path-1-inside-1_1081_17770)"/>
<path d="M106.918 65.448H125.83V67.248H106.918V65.448ZM105.646 75.648H127.174V77.448H105.646V75.648ZM108.574 68.88L110.206 68.4C110.526 68.976 110.838 69.592 111.142 70.248C111.446 70.904 111.718 71.552 111.958 72.192C112.214 72.816 112.39 73.36 112.486 73.824L110.782 74.424C110.67 73.944 110.494 73.392 110.254 72.768C110.03 72.128 109.774 71.472 109.486 70.8C109.198 70.112 108.894 69.472 108.574 68.88ZM122.518 68.28L124.414 68.808C124.126 69.464 123.806 70.136 123.454 70.824C123.118 71.512 122.782 72.176 122.446 72.816C122.11 73.456 121.782 74.016 121.462 74.496L119.902 73.992C120.206 73.48 120.518 72.896 120.838 72.24C121.174 71.568 121.486 70.888 121.774 70.2C122.062 69.496 122.31 68.856 122.518 68.28ZM115.414 66.144H117.286V85.896H115.414V66.144ZM138.91 72.672H146.374V74.328H138.91V72.672ZM137.806 80.424C138.542 80.168 139.39 79.872 140.35 79.536C141.31 79.2 142.334 78.832 143.422 78.432C144.51 78.032 145.59 77.632 146.662 77.232L146.974 78.792C145.518 79.368 144.038 79.952 142.534 80.544C141.046 81.136 139.718 81.656 138.55 82.104L137.806 80.424ZM139.918 67.824H149.806V69.552H139.918V67.824ZM149.23 67.824H151.03C151.03 67.824 151.03 67.888 151.03 68.016C151.03 68.128 151.03 68.264 151.03 68.424C151.03 68.584 151.022 68.704 151.006 68.784C150.926 71.552 150.838 73.904 150.742 75.84C150.646 77.76 150.534 79.336 150.406 80.568C150.278 81.784 150.126 82.736 149.95 83.424C149.79 84.112 149.59 84.6 149.35 84.888C149.078 85.24 148.79 85.48 148.486 85.608C148.182 85.752 147.814 85.848 147.382 85.896C146.966 85.944 146.414 85.96 145.726 85.944C145.038 85.944 144.334 85.92 143.614 85.872C143.598 85.6 143.534 85.288 143.422 84.936C143.326 84.6 143.19 84.304 143.014 84.048C143.814 84.128 144.55 84.168 145.222 84.168C145.91 84.184 146.398 84.192 146.686 84.192C146.926 84.208 147.118 84.184 147.262 84.12C147.422 84.072 147.574 83.968 147.718 83.808C147.91 83.6 148.078 83.176 148.222 82.536C148.382 81.88 148.518 80.944 148.63 79.728C148.758 78.512 148.87 76.968 148.966 75.096C149.062 73.208 149.15 70.92 149.23 68.232V67.824ZM140.566 63.84L142.39 64.248C142.038 65.464 141.614 66.656 141.118 67.824C140.638 68.976 140.102 70.056 139.51 71.064C138.934 72.056 138.326 72.936 137.686 73.704C137.574 73.592 137.422 73.464 137.23 73.32C137.038 73.176 136.838 73.032 136.63 72.888C136.438 72.744 136.262 72.632 136.102 72.552C137.094 71.496 137.966 70.2 138.718 68.664C139.486 67.128 140.102 65.52 140.566 63.84ZM129.646 69.432H137.254V71.136H129.646V69.432ZM132.67 63.984H134.422V79.68H132.67V63.984ZM129.214 80.136C129.902 79.88 130.686 79.584 131.566 79.248C132.462 78.896 133.414 78.52 134.422 78.12C135.43 77.72 136.43 77.312 137.422 76.896L137.806 78.6C136.43 79.192 135.038 79.784 133.63 80.376C132.238 80.968 130.982 81.488 129.862 81.936L129.214 80.136ZM159.046 63.744L160.87 64.224C160.422 65.392 159.894 66.536 159.286 67.656C158.694 68.76 158.046 69.792 157.342 70.752C156.638 71.696 155.91 72.528 155.158 73.248C155.046 73.152 154.894 73.032 154.702 72.888C154.526 72.728 154.334 72.576 154.126 72.432C153.934 72.288 153.758 72.176 153.598 72.096C154.366 71.424 155.086 70.656 155.758 69.792C156.446 68.912 157.07 67.96 157.63 66.936C158.19 65.896 158.662 64.832 159.046 63.744ZM158.686 66.744H174.166V68.472H157.798L158.686 66.744ZM157.51 72.168H173.614V73.872H159.31V79.536H157.51V72.168ZM153.55 78.648H175.294V80.376H153.55V78.648ZM164.686 67.656H166.534V85.92H164.686V67.656ZM177.238 79.392C178.182 79.168 179.318 78.888 180.646 78.552C181.974 78.2 183.326 77.84 184.702 77.472L184.942 79.176C183.662 79.544 182.382 79.904 181.102 80.256C179.838 80.608 178.686 80.928 177.646 81.216L177.238 79.392ZM183.886 63.936H185.638V85.896H183.886V63.936ZM178.99 66.6H180.694V79.632H178.99V66.6ZM186.694 65.688H197.422V67.44H186.694V65.688ZM196.942 65.688H197.23L197.566 65.616L198.742 65.976C198.278 69.352 197.502 72.336 196.414 74.928C195.326 77.504 194.006 79.704 192.454 81.528C190.902 83.352 189.182 84.8 187.294 85.872C187.214 85.728 187.102 85.552 186.958 85.344C186.814 85.152 186.662 84.96 186.502 84.768C186.358 84.592 186.214 84.456 186.07 84.36C187.382 83.672 188.622 82.76 189.79 81.624C190.958 80.488 192.014 79.144 192.958 77.592C193.918 76.024 194.734 74.28 195.406 72.36C196.094 70.44 196.606 68.352 196.942 66.096V65.688ZM189.574 67.584C190.07 70.144 190.75 72.528 191.614 74.736C192.494 76.928 193.606 78.848 194.95 80.496C196.294 82.144 197.902 83.432 199.774 84.36C199.646 84.472 199.494 84.616 199.318 84.792C199.158 84.968 199.006 85.152 198.862 85.344C198.718 85.552 198.59 85.736 198.478 85.896C196.526 84.824 194.862 83.416 193.486 81.672C192.11 79.912 190.966 77.872 190.054 75.552C189.158 73.216 188.43 70.664 187.87 67.896L189.574 67.584ZM204.094 72.696L203.038 71.952L204.55 69.432L201.958 68.328L202.366 67.104L205.102 67.8L205.342 64.896H206.638L206.878 67.776L209.614 67.104L210.022 68.328L207.406 69.432L208.942 71.952L207.886 72.696L206.014 70.416L204.094 72.696Z" fill="#191E1E"/>
<g clip-path="url(#clip0_1081_17770)">
<path d="M61.3789 127.48V119.64L80.9089 115.23V165H72.7189V124.33L61.3789 127.48ZM95.3732 157.3L102.933 159.47L94.8132 176.97L89.2132 175.43L95.3732 157.3ZM106.395 123.77V116H142.935L119.415 165H110.595L130.685 123.77H106.395ZM171.051 132.52C171.051 130.513 170.608 128.763 169.721 127.27C168.881 125.73 167.715 124.54 166.221 123.7C164.728 122.813 163.048 122.37 161.181 122.37C159.268 122.37 157.565 122.813 156.071 123.7C154.578 124.54 153.388 125.73 152.501 127.27C151.661 128.763 151.241 130.513 151.241 132.52C151.241 134.527 151.661 136.3 152.501 137.84C153.388 139.38 154.578 140.593 156.071 141.48C157.565 142.367 159.268 142.81 161.181 142.81C163.048 142.81 164.728 142.367 166.221 141.48C167.715 140.593 168.881 139.38 169.721 137.84C170.608 136.3 171.051 134.527 171.051 132.52ZM159.431 164.93H148.931L164.471 145.68L165.731 145.47C164.611 146.683 163.445 147.477 162.231 147.85C161.018 148.223 159.595 148.41 157.961 148.41C156.001 148.41 154.135 148.037 152.361 147.29C150.588 146.543 149.001 145.47 147.601 144.07C146.248 142.623 145.175 140.92 144.381 138.96C143.588 137 143.191 134.853 143.191 132.52C143.191 128.88 143.985 125.777 145.571 123.21C147.205 120.597 149.375 118.613 152.081 117.26C154.788 115.86 157.821 115.16 161.181 115.16C164.541 115.16 167.575 115.86 170.281 117.26C172.988 118.613 175.135 120.597 176.721 123.21C178.308 125.777 179.101 128.88 179.101 132.52C179.101 134.807 178.705 136.907 177.911 138.82C177.165 140.733 176.185 142.483 174.971 144.07L159.431 164.93ZM190.041 140.5C190.041 143.113 190.298 145.517 190.811 147.71C191.324 149.903 192.048 151.793 192.981 153.38C193.961 154.967 195.128 156.203 196.481 157.09C197.834 157.93 199.328 158.35 200.961 158.35C202.688 158.35 204.204 157.93 205.511 157.09C206.864 156.203 208.008 154.967 208.941 153.38C209.921 151.793 210.668 149.903 211.181 147.71C211.694 145.517 211.951 143.113 211.951 140.5C211.951 137.887 211.694 135.483 211.181 133.29C210.668 131.097 209.921 129.207 208.941 127.62C208.008 126.033 206.864 124.82 205.511 123.98C204.204 123.093 202.688 122.65 200.961 122.65C199.328 122.65 197.834 123.093 196.481 123.98C195.128 124.82 193.961 126.033 192.981 127.62C192.048 129.207 191.324 131.097 190.811 133.29C190.298 135.483 190.041 137.887 190.041 140.5ZM181.921 140.5C181.921 135.413 182.714 130.98 184.301 127.2C185.934 123.42 188.174 120.48 191.021 118.38C193.914 116.28 197.228 115.23 200.961 115.23C204.788 115.23 208.124 116.28 210.971 118.38C213.864 120.48 216.104 123.42 217.691 127.2C219.278 130.98 220.071 135.413 220.071 140.5C220.071 145.587 219.278 150.02 217.691 153.8C216.104 157.58 213.864 160.52 210.971 162.62C208.124 164.72 204.788 165.77 200.961 165.77C197.228 165.77 193.914 164.72 191.021 162.62C188.174 160.52 185.934 157.58 184.301 153.8C182.714 150.02 181.921 145.587 181.921 140.5Z" fill="#191E1E"/>
<path d="M221.43 149.7H238.97V151.18H221.43V149.7ZM227.69 155.26H236.11V156.72H227.69V155.26ZM235.59 155.26H237.13C237.13 155.26 237.13 155.307 237.13 155.4C237.13 155.493 237.123 155.6 237.11 155.72C237.11 155.84 237.11 155.933 237.11 156C237.03 157.627 236.937 159.007 236.83 160.14C236.737 161.273 236.637 162.22 236.53 162.98C236.423 163.727 236.297 164.32 236.15 164.76C236.003 165.2 235.83 165.52 235.63 165.72C235.403 165.973 235.157 166.147 234.89 166.24C234.623 166.347 234.297 166.413 233.91 166.44C233.537 166.48 233.023 166.493 232.37 166.48C231.73 166.467 231.063 166.44 230.37 166.4C230.357 166.173 230.303 165.92 230.21 165.64C230.117 165.373 229.997 165.133 229.85 164.92C230.597 164.987 231.297 165.027 231.95 165.04C232.603 165.053 233.063 165.06 233.33 165.06C233.57 165.073 233.763 165.06 233.91 165.02C234.057 164.993 234.183 164.927 234.29 164.82C234.517 164.62 234.703 164.187 234.85 163.52C235.01 162.853 235.143 161.873 235.25 160.58C235.37 159.287 235.483 157.607 235.59 155.54V155.26ZM226.85 150.9H228.41C228.383 152.033 228.323 153.2 228.23 154.4C228.15 155.587 227.997 156.767 227.77 157.94C227.543 159.113 227.203 160.24 226.75 161.32C226.297 162.387 225.677 163.373 224.89 164.28C224.117 165.187 223.143 165.973 221.97 166.64C221.85 166.44 221.683 166.233 221.47 166.02C221.257 165.807 221.057 165.627 220.87 165.48C222.003 164.88 222.93 164.16 223.65 163.32C224.383 162.467 224.957 161.54 225.37 160.54C225.797 159.54 226.11 158.5 226.31 157.42C226.51 156.327 226.643 155.227 226.71 154.12C226.777 153.013 226.823 151.94 226.85 150.9ZM241.61 149.56H257.29V151.04H243.13V166.62H241.61V149.56ZM256.61 149.56H258.13V164.6C258.13 165.08 258.063 165.447 257.93 165.7C257.797 165.967 257.557 166.173 257.21 166.32C256.877 166.44 256.417 166.513 255.83 166.54C255.257 166.567 254.517 166.58 253.61 166.58C253.597 166.447 253.557 166.287 253.49 166.1C253.423 165.913 253.35 165.727 253.27 165.54C253.203 165.367 253.13 165.213 253.05 165.08C253.503 165.093 253.937 165.1 254.35 165.1C254.777 165.1 255.143 165.1 255.45 165.1C255.757 165.1 255.977 165.1 256.11 165.1C256.297 165.087 256.423 165.047 256.49 164.98C256.57 164.9 256.61 164.773 256.61 164.6V149.56ZM242.45 156.94H257.33V158.42H242.45V156.94ZM249.01 150.3H250.51V157.68H249.01V150.3Z" fill="#191E1E"/>
<path d="M84.2152 203.788L84.5752 204.904L82.0912 205.48L81.8752 204.784L84.2152 203.788ZM83.9512 206.836L83.0032 207.52L81.6952 205.348L82.2712 204.916L83.9512 206.836ZM80.9632 207.52L80.0152 206.836L81.6952 204.916L82.2712 205.348L80.9632 207.52ZM79.3912 204.904L79.7512 203.788L82.0912 204.784L81.8752 205.48L79.3912 204.904ZM81.3952 202.6H82.5712L82.3432 205.132H81.6232L81.3952 202.6ZM96.6088 202.888C96.5528 202.952 96.4848 203.036 96.4048 203.14C96.3328 203.236 96.2688 203.32 96.2128 203.392C96.0448 203.688 95.8088 204.036 95.5048 204.436C95.2088 204.836 94.8688 205.24 94.4848 205.648C94.1088 206.048 93.7048 206.4 93.2728 206.704L92.2768 205.9C92.5408 205.748 92.7968 205.568 93.0448 205.36C93.3008 205.144 93.5368 204.92 93.7528 204.688C93.9768 204.456 94.1728 204.232 94.3408 204.016C94.5088 203.792 94.6368 203.592 94.7248 203.416C94.6128 203.416 94.4208 203.416 94.1488 203.416C93.8848 203.416 93.5648 203.416 93.1888 203.416C92.8208 203.416 92.4248 203.416 92.0008 203.416C91.5848 203.416 91.1688 203.416 90.7528 203.416C90.3368 203.416 89.9488 203.416 89.5888 203.416C89.2288 203.416 88.9208 203.416 88.6648 203.416C88.4088 203.416 88.2368 203.416 88.1488 203.416C87.9088 203.416 87.6768 203.424 87.4528 203.44C87.2288 203.448 86.9888 203.464 86.7328 203.488V202.156C86.9568 202.18 87.1888 202.204 87.4288 202.228C87.6688 202.252 87.9088 202.264 88.1488 202.264C88.2368 202.264 88.4128 202.264 88.6768 202.264C88.9408 202.264 89.2568 202.264 89.6248 202.264C90.0008 202.264 90.4048 202.264 90.8368 202.264C91.2688 202.264 91.7008 202.264 92.1328 202.264C92.5648 202.264 92.9688 202.264 93.3448 202.264C93.7208 202.264 94.0408 202.264 94.3048 202.264C94.5688 202.264 94.7528 202.264 94.8568 202.264C94.9448 202.264 95.0528 202.264 95.1808 202.264C95.3168 202.256 95.4448 202.244 95.5648 202.228C95.6928 202.212 95.7888 202.196 95.8528 202.18L96.6088 202.888ZM91.7608 204.484C91.7608 205.108 91.7448 205.7 91.7128 206.26C91.6808 206.82 91.6048 207.352 91.4848 207.856C91.3728 208.352 91.1968 208.82 90.9568 209.26C90.7168 209.692 90.3928 210.1 89.9848 210.484C89.5768 210.868 89.0568 211.22 88.4248 211.54L87.3208 210.64C87.4968 210.584 87.6848 210.508 87.8848 210.412C88.0928 210.308 88.2888 210.188 88.4728 210.052C88.9048 209.772 89.2528 209.468 89.5168 209.14C89.7808 208.812 89.9768 208.46 90.1048 208.084C90.2408 207.7 90.3328 207.288 90.3808 206.848C90.4368 206.408 90.4648 205.94 90.4648 205.444C90.4648 205.284 90.4608 205.128 90.4528 204.976C90.4448 204.824 90.4248 204.66 90.3928 204.484H91.7608ZM100.137 210.448C101.129 210.048 101.961 209.552 102.633 208.96C103.313 208.36 103.877 207.736 104.325 207.088C104.773 206.424 105.101 205.76 105.309 205.096C105.525 204.424 105.685 203.824 105.789 203.296C105.829 203.088 105.857 202.872 105.873 202.648C105.897 202.416 105.909 202.24 105.909 202.12L107.421 202.324C107.365 202.516 107.309 202.724 107.253 202.948C107.205 203.164 107.165 203.336 107.133 203.464C106.989 204.176 106.789 204.896 106.533 205.624C106.277 206.344 105.929 207.044 105.489 207.724C105.017 208.444 104.437 209.124 103.749 209.764C103.061 210.404 102.233 210.956 101.265 211.42L100.137 210.448ZM99.6208 202.216C99.7568 202.424 99.9168 202.68 100.101 202.984C100.293 203.288 100.489 203.612 100.689 203.956C100.889 204.292 101.073 204.612 101.241 204.916C101.409 205.22 101.549 205.472 101.661 205.672L100.425 206.368C100.289 206.08 100.133 205.768 99.9568 205.432C99.7808 205.096 99.5968 204.764 99.4048 204.436C99.2208 204.108 99.0408 203.804 98.8648 203.524C98.6968 203.244 98.5448 203.016 98.4088 202.84L99.6208 202.216ZM112.497 201.652C112.689 201.756 112.905 201.888 113.145 202.048C113.385 202.2 113.633 202.36 113.889 202.528C114.145 202.688 114.385 202.844 114.609 202.996C114.841 203.14 115.025 203.264 115.161 203.368L114.453 204.4C114.301 204.288 114.113 204.156 113.889 204.004C113.665 203.852 113.429 203.696 113.181 203.536C112.933 203.376 112.689 203.224 112.449 203.08C112.209 202.928 111.997 202.796 111.813 202.684L112.497 201.652ZM110.517 210.208C110.957 210.128 111.409 210.028 111.873 209.908C112.337 209.78 112.797 209.628 113.253 209.452C113.709 209.268 114.149 209.064 114.573 208.84C115.237 208.456 115.857 208.028 116.433 207.556C117.009 207.084 117.529 206.58 117.993 206.044C118.457 205.508 118.849 204.956 119.169 204.388L119.901 205.66C119.357 206.476 118.681 207.256 117.873 208C117.073 208.744 116.185 209.396 115.209 209.956C114.801 210.188 114.357 210.404 113.877 210.604C113.405 210.804 112.933 210.976 112.461 211.12C111.997 211.272 111.585 211.38 111.225 211.444L110.517 210.208ZM110.673 204.376C110.865 204.472 111.085 204.596 111.333 204.748C111.581 204.892 111.833 205.044 112.089 205.204C112.345 205.364 112.585 205.516 112.809 205.66C113.033 205.796 113.217 205.916 113.361 206.02L112.665 207.088C112.505 206.976 112.313 206.844 112.089 206.692C111.865 206.54 111.629 206.384 111.381 206.224C111.133 206.064 110.885 205.916 110.637 205.78C110.397 205.636 110.181 205.512 109.989 205.408L110.673 204.376ZM122.325 202.816C122.485 202.84 122.669 202.86 122.877 202.876C123.085 202.884 123.257 202.888 123.393 202.888H129.957C130.141 202.888 130.325 202.884 130.509 202.876C130.701 202.86 130.877 202.84 131.037 202.816V204.136C130.869 204.12 130.689 204.108 130.497 204.1C130.313 204.092 130.133 204.088 129.957 204.088H123.393C123.257 204.088 123.085 204.092 122.877 204.1C122.669 204.108 122.485 204.12 122.325 204.136V202.816ZM125.925 210.016V203.56H127.233V210.016H125.925ZM121.581 209.248C121.765 209.272 121.953 209.292 122.145 209.308C122.337 209.324 122.521 209.332 122.697 209.332H130.617C130.809 209.332 130.993 209.324 131.169 209.308C131.345 209.284 131.509 209.264 131.661 209.248V210.628C131.493 210.604 131.309 210.588 131.109 210.58C130.909 210.572 130.745 210.568 130.617 210.568H122.697C122.521 210.568 122.337 210.572 122.145 210.58C121.961 210.588 121.773 210.604 121.581 210.628V209.248ZM133.305 206.524C134.361 206.244 135.329 205.912 136.209 205.528C137.097 205.136 137.873 204.732 138.537 204.316C138.961 204.06 139.373 203.772 139.773 203.452C140.181 203.132 140.565 202.8 140.925 202.456C141.285 202.112 141.601 201.78 141.873 201.46L142.881 202.42C142.529 202.78 142.149 203.136 141.741 203.488C141.333 203.84 140.901 204.18 140.445 204.508C139.997 204.828 139.537 205.132 139.065 205.42C138.625 205.692 138.125 205.968 137.565 206.248C137.005 206.52 136.413 206.784 135.789 207.04C135.165 207.288 134.533 207.512 133.893 207.712L133.305 206.524ZM138.321 204.94L139.653 204.592V210.028C139.653 210.188 139.653 210.364 139.653 210.556C139.661 210.74 139.669 210.912 139.677 211.072C139.693 211.232 139.713 211.356 139.737 211.444H138.249C138.257 211.356 138.269 211.232 138.285 211.072C138.301 210.912 138.309 210.74 138.309 210.556C138.317 210.364 138.321 210.188 138.321 210.028V204.94ZM148.089 209.896C148.089 209.768 148.089 209.536 148.089 209.2C148.089 208.856 148.089 208.452 148.089 207.988C148.089 207.516 148.089 207.028 148.089 206.524C148.089 206.012 148.089 205.516 148.089 205.036C148.089 204.556 148.089 204.132 148.089 203.764C148.089 203.396 148.089 203.128 148.089 202.96C148.089 202.768 148.081 202.548 148.065 202.3C148.049 202.044 148.021 201.816 147.981 201.616H149.457C149.441 201.808 149.421 202.028 149.397 202.276C149.381 202.524 149.373 202.752 149.373 202.96C149.373 203.232 149.373 203.576 149.373 203.992C149.373 204.4 149.373 204.844 149.373 205.324C149.373 205.804 149.373 206.288 149.373 206.776C149.373 207.264 149.373 207.724 149.373 208.156C149.373 208.58 149.373 208.948 149.373 209.26C149.373 209.572 149.373 209.784 149.373 209.896C149.373 210.024 149.377 210.18 149.385 210.364C149.393 210.548 149.405 210.736 149.421 210.928C149.437 211.112 149.453 211.28 149.469 211.432H147.993C148.025 211.224 148.049 210.976 148.065 210.688C148.081 210.392 148.089 210.128 148.089 209.896ZM149.097 204.748C149.489 204.86 149.929 205 150.417 205.168C150.905 205.328 151.397 205.504 151.893 205.696C152.389 205.88 152.861 206.064 153.309 206.248C153.757 206.432 154.137 206.6 154.449 206.752L153.909 208.06C153.573 207.876 153.193 207.692 152.769 207.508C152.353 207.316 151.925 207.132 151.485 206.956C151.045 206.78 150.617 206.62 150.201 206.476C149.793 206.332 149.425 206.208 149.097 206.104V204.748ZM160.233 202.84L161.265 202.336C161.529 202.624 161.785 202.94 162.033 203.284C162.281 203.628 162.505 203.968 162.705 204.304C162.905 204.64 163.061 204.944 163.173 205.216L162.069 205.816C161.973 205.536 161.825 205.224 161.625 204.88C161.433 204.528 161.217 204.176 160.977 203.824C160.737 203.464 160.489 203.136 160.233 202.84ZM156.309 209.488C156.725 209.336 157.201 209.152 157.737 208.936C158.273 208.72 158.841 208.488 159.441 208.24C160.049 207.984 160.649 207.728 161.241 207.472L161.505 208.588C160.953 208.828 160.393 209.076 159.825 209.332C159.265 209.58 158.717 209.82 158.181 210.052C157.653 210.276 157.165 210.484 156.717 210.676L156.309 209.488ZM163.437 208.132L164.313 207.352C164.593 207.632 164.889 207.936 165.201 208.264C165.521 208.584 165.833 208.912 166.137 209.248C166.441 209.584 166.725 209.908 166.989 210.22C167.253 210.532 167.469 210.816 167.637 211.072L166.677 211.984C166.509 211.728 166.301 211.44 166.053 211.12C165.805 210.8 165.533 210.468 165.237 210.124C164.941 209.772 164.637 209.428 164.325 209.092C164.021 208.748 163.725 208.428 163.437 208.132ZM165.093 201.52L166.341 201.64C166.189 203.016 165.973 204.248 165.693 205.336C165.421 206.424 165.053 207.392 164.589 208.24C164.125 209.08 163.537 209.812 162.825 210.436C162.121 211.06 161.257 211.592 160.233 212.032C160.185 211.952 160.105 211.848 159.993 211.72C159.881 211.6 159.765 211.476 159.645 211.348C159.533 211.22 159.429 211.116 159.333 211.036C160.333 210.668 161.173 210.204 161.853 209.644C162.533 209.084 163.089 208.416 163.521 207.64C163.961 206.864 164.301 205.972 164.541 204.964C164.789 203.948 164.973 202.8 165.093 201.52ZM157.725 201.556L158.913 201.508L159.153 209.392L157.965 209.428L157.725 201.556ZM173.361 204.628H178.317V205.768H173.361V204.628ZM168.285 210.292H179.145V211.432H168.285V210.292ZM172.713 201.04H173.925V210.904H172.713V201.04ZM186.393 202.792C186.313 203.408 186.209 204.06 186.081 204.748C185.961 205.428 185.797 206.104 185.589 206.776C185.349 207.592 185.077 208.284 184.773 208.852C184.477 209.412 184.153 209.84 183.801 210.136C183.449 210.432 183.077 210.58 182.685 210.58C182.285 210.58 181.913 210.444 181.569 210.172C181.225 209.892 180.945 209.504 180.729 209.008C180.513 208.504 180.405 207.92 180.405 207.256C180.405 206.584 180.541 205.948 180.813 205.348C181.093 204.748 181.477 204.216 181.965 203.752C182.453 203.288 183.021 202.924 183.669 202.66C184.317 202.396 185.017 202.264 185.769 202.264C186.489 202.264 187.137 202.38 187.713 202.612C188.297 202.844 188.793 203.168 189.201 203.584C189.617 203.992 189.933 204.472 190.149 205.024C190.365 205.576 190.473 206.164 190.473 206.788C190.473 207.628 190.297 208.376 189.945 209.032C189.601 209.68 189.093 210.212 188.421 210.628C187.749 211.036 186.925 211.312 185.949 211.456L185.241 210.328C185.449 210.304 185.641 210.28 185.817 210.256C185.993 210.224 186.157 210.192 186.309 210.16C186.693 210.072 187.057 209.936 187.401 209.752C187.753 209.568 188.065 209.336 188.337 209.056C188.609 208.768 188.821 208.432 188.973 208.048C189.133 207.664 189.213 207.232 189.213 206.752C189.213 206.272 189.137 205.828 188.985 205.42C188.833 205.004 188.609 204.644 188.313 204.34C188.017 204.036 187.653 203.8 187.221 203.632C186.789 203.456 186.301 203.368 185.757 203.368C185.101 203.368 184.517 203.484 184.005 203.716C183.493 203.948 183.057 204.256 182.697 204.64C182.345 205.016 182.077 205.424 181.893 205.864C181.709 206.304 181.617 206.728 181.617 207.136C181.617 207.592 181.673 207.972 181.785 208.276C181.897 208.572 182.037 208.792 182.205 208.936C182.373 209.08 182.545 209.152 182.721 209.152C182.897 209.152 183.077 209.064 183.261 208.888C183.445 208.704 183.629 208.416 183.813 208.024C184.005 207.632 184.193 207.132 184.377 206.524C184.561 205.948 184.713 205.336 184.833 204.688C184.961 204.032 185.053 203.392 185.109 202.768L186.393 202.792ZM192.477 201.652H201.993V202.78H192.477V201.652ZM191.841 206.74H202.689V207.88H191.841V206.74ZM193.269 203.572L194.301 203.272C194.453 203.544 194.597 203.84 194.733 204.16C194.877 204.472 195.005 204.78 195.117 205.084C195.237 205.38 195.321 205.644 195.369 205.876L194.277 206.236C194.221 206.004 194.141 205.736 194.037 205.432C193.941 205.128 193.825 204.812 193.689 204.484C193.553 204.156 193.413 203.852 193.269 203.572ZM200.181 203.224L201.393 203.548C201.249 203.86 201.093 204.18 200.925 204.508C200.757 204.836 200.593 205.152 200.433 205.456C200.273 205.752 200.121 206.016 199.977 206.248L198.981 205.936C199.125 205.696 199.273 205.42 199.425 205.108C199.577 204.788 199.717 204.464 199.845 204.136C199.981 203.8 200.093 203.496 200.181 203.224ZM196.653 202.108H197.829V211.996H196.653V202.108ZM208.293 205.276H211.929V206.296H208.293V205.276ZM207.705 209.068C208.065 208.948 208.481 208.808 208.953 208.648C209.425 208.488 209.929 208.312 210.465 208.12C211.001 207.92 211.533 207.724 212.061 207.532L212.265 208.504C211.561 208.784 210.845 209.068 210.117 209.356C209.389 209.644 208.733 209.904 208.149 210.136L207.705 209.068ZM208.821 202.828H213.597V203.908H208.821V202.828ZM213.249 202.828H214.401C214.401 202.828 214.397 202.868 214.389 202.948C214.389 203.02 214.389 203.1 214.389 203.188C214.389 203.276 214.385 203.348 214.377 203.404C214.337 204.764 214.293 205.924 214.245 206.884C214.197 207.836 214.141 208.616 214.077 209.224C214.021 209.832 213.949 210.312 213.861 210.664C213.781 211.008 213.681 211.256 213.561 211.408C213.417 211.608 213.261 211.744 213.093 211.816C212.933 211.896 212.737 211.952 212.505 211.984C212.297 212.016 212.025 212.028 211.689 212.02C211.353 212.02 211.005 212.012 210.645 211.996C210.637 211.828 210.597 211.632 210.525 211.408C210.461 211.192 210.377 211.004 210.273 210.844C210.657 210.876 211.009 210.896 211.329 210.904C211.649 210.904 211.881 210.904 212.025 210.904C212.145 210.912 212.241 210.904 212.313 210.88C212.393 210.848 212.465 210.792 212.529 210.712C212.625 210.608 212.709 210.396 212.781 210.076C212.861 209.748 212.929 209.288 212.985 208.696C213.041 208.096 213.089 207.336 213.129 206.416C213.177 205.496 213.217 204.384 213.249 203.08V202.828ZM209.013 200.86L210.165 201.112C209.997 201.728 209.789 202.328 209.541 202.912C209.293 203.496 209.021 204.04 208.725 204.544C208.429 205.048 208.117 205.492 207.789 205.876C207.725 205.804 207.633 205.724 207.513 205.636C207.393 205.54 207.269 205.448 207.141 205.36C207.013 205.272 206.901 205.2 206.805 205.144C207.301 204.632 207.737 204 208.113 203.248C208.489 202.488 208.789 201.692 209.013 200.86ZM203.613 203.62H207.417V204.7H203.613V203.62ZM205.017 200.98H206.121V208.888H205.017V200.98ZM203.373 208.924C203.717 208.796 204.113 208.648 204.561 208.48C205.017 208.304 205.497 208.116 206.001 207.916C206.505 207.716 207.005 207.516 207.501 207.316L207.741 208.372C207.069 208.668 206.381 208.964 205.677 209.26C204.981 209.556 204.349 209.824 203.781 210.064L203.373 208.924ZM217.977 200.824L219.129 201.124C218.905 201.708 218.645 202.284 218.349 202.852C218.053 203.412 217.733 203.932 217.389 204.412C217.045 204.892 216.685 205.312 216.309 205.672C216.237 205.608 216.141 205.528 216.021 205.432C215.909 205.336 215.789 205.244 215.661 205.156C215.541 205.06 215.433 204.988 215.337 204.94C215.713 204.612 216.065 204.232 216.393 203.8C216.721 203.36 217.017 202.888 217.281 202.384C217.553 201.872 217.785 201.352 217.977 200.824ZM217.977 202.264H225.669V203.356H217.425L217.977 202.264ZM217.281 205.036H225.393V206.092H218.409V208.792H217.281V205.036ZM215.325 208.228H226.281V209.332H215.325V208.228ZM220.845 202.828H222.009V212.008H220.845V202.828ZM226.929 208.528C227.401 208.432 227.969 208.3 228.633 208.132C229.297 207.964 229.969 207.796 230.649 207.628L230.793 208.684C230.169 208.868 229.541 209.048 228.909 209.224C228.277 209.392 227.701 209.548 227.181 209.692L226.929 208.528ZM230.145 200.932H231.249V211.996H230.145V200.932ZM227.793 202.264H228.849V208.756H227.793V202.264ZM231.729 201.748H236.949V202.852H231.729V201.748ZM236.661 201.748H236.853L237.057 201.7L237.813 201.928C237.589 203.632 237.217 205.136 236.697 206.44C236.185 207.736 235.541 208.844 234.765 209.764C233.997 210.684 233.121 211.428 232.137 211.996C232.089 211.892 232.017 211.776 231.921 211.648C231.833 211.528 231.741 211.408 231.645 211.288C231.549 211.176 231.453 211.084 231.357 211.012C232.037 210.676 232.665 210.224 233.241 209.656C233.817 209.088 234.333 208.42 234.789 207.652C235.253 206.876 235.641 206.016 235.953 205.072C236.273 204.12 236.509 203.096 236.661 202V201.748ZM233.325 202.936C233.557 204.16 233.885 205.3 234.309 206.356C234.733 207.412 235.273 208.34 235.929 209.14C236.585 209.94 237.377 210.568 238.305 211.024C238.217 211.088 238.121 211.176 238.017 211.288C237.913 211.408 237.813 211.532 237.717 211.66C237.621 211.788 237.545 211.904 237.489 212.008C236.505 211.464 235.673 210.764 234.993 209.908C234.321 209.044 233.761 208.04 233.313 206.896C232.873 205.752 232.517 204.496 232.245 203.128L233.325 202.936Z" fill="#191E1E"/>
</g>
<defs>
<clipPath id="clip0_1081_17770">
<rect width="256" height="147" fill="white" transform="translate(30 109)"/>
</clipPath>
</defs>
</svg>
