<svg width="316" height="316" viewBox="0 0 316 316" fill="none" xmlns="http://www.w3.org/2000/svg">
<mask id="path-1-inside-1_1322_3542" fill="white">
<path d="M0 0H316V316H0V0Z"/>
</mask>
<path d="M0 0H316V316H0V0Z" fill="#FAF9F7"/>
<path d="M0 0V1H316V0V-1H0V0Z" fill="#191E1E" mask="url(#path-1-inside-1_1322_3542)"/>
<path d="M75.488 73.704H96.608V75.48H75.488V73.704ZM77.192 67.776H94.976V69.552H77.192V67.776ZM85.016 63.864H86.912V85.92H85.016V63.864ZM84.56 74.616L86.096 75.264C85.536 76.224 84.872 77.16 84.104 78.072C83.336 78.984 82.512 79.848 81.632 80.664C80.768 81.464 79.864 82.2 78.92 82.872C77.992 83.528 77.064 84.096 76.136 84.576C76.024 84.432 75.888 84.264 75.728 84.072C75.584 83.88 75.432 83.696 75.272 83.52C75.112 83.328 74.96 83.176 74.816 83.064C75.728 82.648 76.648 82.136 77.576 81.528C78.52 80.92 79.424 80.248 80.288 79.512C81.152 78.76 81.944 77.968 82.664 77.136C83.4 76.304 84.032 75.464 84.56 74.616ZM87.368 74.616C87.896 75.464 88.528 76.304 89.264 77.136C90.016 77.952 90.824 78.744 91.688 79.512C92.552 80.264 93.456 80.944 94.4 81.552C95.344 82.144 96.272 82.64 97.184 83.04C97.056 83.168 96.904 83.32 96.728 83.496C96.568 83.672 96.408 83.856 96.248 84.048C96.104 84.24 95.976 84.424 95.864 84.6C94.952 84.12 94.024 83.544 93.08 82.872C92.136 82.2 91.224 81.456 90.344 80.64C89.464 79.824 88.64 78.96 87.872 78.048C87.12 77.136 86.456 76.208 85.88 75.264L87.368 74.616ZM107.984 65.088H118.64V66.672H107.984V65.088ZM108.92 78.024H120.032V79.632H108.92V78.024ZM107.36 83.592H121.088V85.2H107.36V83.592ZM118.136 65.088H118.472L118.832 65.016L120.032 65.544C119.392 67.384 118.488 68.968 117.32 70.296C116.168 71.624 114.832 72.736 113.312 73.632C111.808 74.528 110.208 75.256 108.512 75.816C108.4 75.576 108.24 75.312 108.032 75.024C107.84 74.736 107.656 74.496 107.48 74.304C109.048 73.872 110.536 73.256 111.944 72.456C113.368 71.64 114.616 70.648 115.688 69.48C116.776 68.296 117.592 66.936 118.136 65.4V65.088ZM111.104 66.48C111.968 68.432 113.288 70.08 115.064 71.424C116.856 72.768 118.96 73.712 121.376 74.256C121.2 74.432 121 74.672 120.776 74.976C120.568 75.264 120.4 75.52 120.272 75.744C117.76 75.088 115.584 74.024 113.744 72.552C111.92 71.064 110.512 69.216 109.52 67.008L111.104 66.48ZM113.504 74.544H115.28V84.6H113.504V74.544ZM102.68 63.84L104.264 64.488C103.96 65.048 103.64 65.648 103.304 66.288C102.968 66.928 102.624 67.544 102.272 68.136C101.936 68.728 101.608 69.24 101.288 69.672L100.064 69.12C100.368 68.656 100.68 68.12 101 67.512C101.32 66.888 101.632 66.256 101.936 65.616C102.24 64.96 102.488 64.368 102.68 63.84ZM105.392 66.576L106.904 67.272C106.36 68.184 105.752 69.152 105.08 70.176C104.424 71.2 103.76 72.184 103.088 73.128C102.416 74.072 101.776 74.904 101.168 75.624L100.064 75C100.512 74.456 100.976 73.84 101.456 73.152C101.952 72.448 102.432 71.72 102.896 70.968C103.376 70.2 103.824 69.44 104.24 68.688C104.672 67.92 105.056 67.216 105.392 66.576ZM98.912 68.904L99.824 67.704C100.272 68.072 100.72 68.488 101.168 68.952C101.632 69.4 102.056 69.848 102.44 70.296C102.824 70.728 103.12 71.12 103.328 71.472L102.344 72.84C102.136 72.472 101.84 72.056 101.456 71.592C101.088 71.112 100.68 70.64 100.232 70.176C99.784 69.712 99.344 69.288 98.912 68.904ZM104.528 72.168L105.8 71.64C106.136 72.152 106.456 72.712 106.76 73.32C107.064 73.912 107.328 74.496 107.552 75.072C107.792 75.632 107.968 76.136 108.08 76.584L106.712 77.184C106.616 76.736 106.448 76.224 106.208 75.648C105.984 75.072 105.728 74.48 105.44 73.872C105.152 73.248 104.848 72.68 104.528 72.168ZM98.816 74.592C99.872 74.56 101.112 74.512 102.536 74.448C103.96 74.384 105.432 74.32 106.952 74.256L106.928 75.72C105.504 75.816 104.096 75.912 102.704 76.008C101.312 76.088 100.072 76.168 98.984 76.248L98.816 74.592ZM105.152 77.808L106.472 77.4C106.792 78.072 107.096 78.824 107.384 79.656C107.688 80.472 107.896 81.176 108.008 81.768L106.64 82.248C106.528 81.64 106.328 80.928 106.04 80.112C105.768 79.28 105.472 78.512 105.152 77.808ZM100.184 77.568L101.72 77.832C101.56 78.968 101.336 80.088 101.048 81.192C100.76 82.28 100.424 83.208 100.04 83.976C99.928 83.896 99.784 83.816 99.608 83.736C99.448 83.656 99.272 83.576 99.08 83.496C98.904 83.4 98.744 83.328 98.6 83.28C99.016 82.544 99.344 81.672 99.584 80.664C99.84 79.64 100.04 78.608 100.184 77.568ZM102.752 75.264H104.36V85.968H102.752V75.264ZM135.128 74.64V77.808H142.64V74.64H135.128ZM133.592 73.248H144.248V79.2H133.592V73.248ZM138.776 65.472C138.392 66.16 137.904 66.864 137.312 67.584C136.736 68.304 136.08 69 135.344 69.672C134.624 70.344 133.872 70.928 133.088 71.424C132.992 71.216 132.856 70.976 132.68 70.704C132.504 70.416 132.336 70.184 132.176 70.008C132.976 69.544 133.736 68.976 134.456 68.304C135.192 67.632 135.856 66.912 136.448 66.144C137.056 65.36 137.536 64.6 137.888 63.864H139.52C140.016 64.648 140.584 65.416 141.224 66.168C141.864 66.904 142.552 67.576 143.288 68.184C144.04 68.792 144.776 69.288 145.496 69.672C145.336 69.864 145.168 70.112 144.992 70.416C144.816 70.704 144.672 70.968 144.56 71.208C143.84 70.744 143.12 70.208 142.4 69.6C141.68 68.976 141 68.312 140.36 67.608C139.736 66.888 139.208 66.176 138.776 65.472ZM138.032 70.536H139.664V75.456C139.664 76.416 139.592 77.376 139.448 78.336C139.304 79.28 139.016 80.208 138.584 81.12C138.168 82.032 137.544 82.896 136.712 83.712C135.88 84.512 134.752 85.248 133.328 85.92C133.264 85.808 133.16 85.672 133.016 85.512C132.888 85.352 132.752 85.192 132.608 85.032C132.48 84.872 132.352 84.744 132.224 84.648C133.536 84.056 134.576 83.4 135.344 82.68C136.128 81.944 136.712 81.184 137.096 80.4C137.48 79.6 137.728 78.784 137.84 77.952C137.968 77.104 138.032 76.272 138.032 75.456V70.536ZM139.976 78.336C140.408 79.744 141.08 80.992 141.992 82.08C142.904 83.152 144.016 83.944 145.328 84.456C145.2 84.568 145.064 84.704 144.92 84.864C144.776 85.04 144.632 85.216 144.488 85.392C144.36 85.568 144.248 85.736 144.152 85.896C142.76 85.24 141.6 84.288 140.672 83.04C139.744 81.776 139.04 80.328 138.56 78.696L139.976 78.336ZM135.152 69.864H142.616V71.304H135.152V69.864ZM125 68.448H132.176V69.888H125V68.448ZM125 72.048H132.176V73.488H125V72.048ZM124.136 75.72H132.176V77.184H124.136V75.72ZM128.024 65.664H129.512V76.512H128.024V65.664ZM128.936 78.456L129.776 78.144C130.064 78.64 130.336 79.176 130.592 79.752C130.864 80.328 131.056 80.824 131.168 81.24L130.256 81.624C130.144 81.176 129.96 80.664 129.704 80.088C129.464 79.496 129.208 78.952 128.936 78.456ZM127.352 78.84L128.264 78.672C128.504 79.28 128.72 79.944 128.912 80.664C129.104 81.384 129.224 82 129.272 82.512L128.288 82.752C128.24 82.224 128.128 81.6 127.952 80.88C127.792 80.144 127.592 79.464 127.352 78.84ZM125.648 79.056L126.56 78.936C126.704 79.64 126.808 80.408 126.872 81.24C126.936 82.056 126.96 82.76 126.944 83.352L125.96 83.496C125.992 82.888 125.976 82.176 125.912 81.36C125.848 80.544 125.76 79.776 125.648 79.056ZM123.944 78.672L125.072 78.864C125.04 79.584 124.976 80.304 124.88 81.024C124.8 81.728 124.664 82.392 124.472 83.016C124.296 83.624 124.048 84.152 123.728 84.6L122.72 84.024C123.008 83.608 123.232 83.12 123.392 82.56C123.568 81.984 123.696 81.36 123.776 80.688C123.856 80.016 123.912 79.344 123.944 78.672ZM124.136 64.848H132.704V66.36H125.672V76.656H124.136V64.848ZM131.384 75.72H132.92C132.92 75.72 132.92 75.808 132.92 75.984C132.92 76.16 132.912 76.304 132.896 76.416C132.816 78.4 132.728 80 132.632 81.216C132.536 82.416 132.424 83.328 132.296 83.952C132.168 84.56 132 84.984 131.792 85.224C131.616 85.448 131.424 85.6 131.216 85.68C131.024 85.776 130.792 85.832 130.52 85.848C130.28 85.896 129.96 85.912 129.56 85.896C129.176 85.896 128.776 85.888 128.36 85.872C128.344 85.648 128.304 85.392 128.24 85.104C128.176 84.832 128.08 84.6 127.952 84.408C128.368 84.44 128.744 84.464 129.08 84.48C129.416 84.496 129.664 84.504 129.824 84.504C129.984 84.504 130.112 84.488 130.208 84.456C130.304 84.424 130.4 84.352 130.496 84.24C130.624 84.064 130.736 83.696 130.832 83.136C130.944 82.576 131.048 81.72 131.144 80.568C131.24 79.416 131.32 77.888 131.384 75.984V75.72ZM147.296 71.544H168.704V73.176H147.296V71.544ZM149.408 66.864H163.328V68.448H149.408V66.864ZM153.32 79.608H164.624V81.048H153.32V79.608ZM153.32 83.568H164.624V85.128H153.32V83.568ZM155.576 63.84H157.352V72.408H155.576V63.84ZM166.088 64.656L167.624 65.496C166.024 67.592 164.176 69.512 162.08 71.256C160 73 157.76 74.56 155.36 75.936C152.96 77.312 150.48 78.488 147.92 79.464C147.856 79.32 147.752 79.16 147.608 78.984C147.464 78.792 147.312 78.608 147.152 78.432C147.008 78.24 146.88 78.08 146.768 77.952C149.36 77.056 151.848 75.952 154.232 74.64C156.616 73.328 158.816 71.832 160.832 70.152C162.864 68.472 164.616 66.64 166.088 64.656ZM152.336 75.696H165.752V85.824H163.904V77.232H154.136V85.92H152.336V75.696ZM183.536 67.608C183.376 68.856 183.168 70.16 182.912 71.52C182.672 72.88 182.36 74.2 181.976 75.48C181.496 77.128 180.96 78.504 180.368 79.608C179.792 80.712 179.168 81.544 178.496 82.104C177.824 82.664 177.12 82.944 176.384 82.944C175.68 82.944 175 82.688 174.344 82.176C173.688 81.664 173.152 80.928 172.736 79.968C172.32 78.992 172.112 77.848 172.112 76.536C172.112 75.224 172.376 73.984 172.904 72.816C173.448 71.648 174.192 70.616 175.136 69.72C176.096 68.808 177.216 68.088 178.496 67.56C179.776 67.032 181.144 66.768 182.6 66.768C184.008 66.768 185.272 67 186.392 67.464C187.528 67.928 188.496 68.568 189.296 69.384C190.096 70.184 190.712 71.12 191.144 72.192C191.576 73.248 191.792 74.384 191.792 75.6C191.792 77.28 191.432 78.76 190.712 80.04C190.008 81.32 188.984 82.36 187.64 83.16C186.312 83.96 184.696 84.488 182.792 84.744L181.664 82.968C182.048 82.92 182.416 82.872 182.768 82.824C183.12 82.776 183.44 82.72 183.728 82.656C184.496 82.48 185.24 82.208 185.96 81.84C186.696 81.456 187.352 80.976 187.928 80.4C188.504 79.808 188.96 79.112 189.296 78.312C189.648 77.496 189.824 76.568 189.824 75.528C189.824 74.552 189.664 73.648 189.344 72.816C189.024 71.968 188.552 71.224 187.928 70.584C187.304 69.944 186.544 69.44 185.648 69.072C184.752 68.704 183.728 68.52 182.576 68.52C181.264 68.52 180.072 68.76 179 69.24C177.944 69.72 177.04 70.352 176.288 71.136C175.552 71.904 174.984 72.752 174.584 73.68C174.184 74.592 173.984 75.488 173.984 76.368C173.984 77.376 174.112 78.208 174.368 78.864C174.64 79.504 174.96 79.976 175.328 80.28C175.712 80.584 176.088 80.736 176.456 80.736C176.84 80.736 177.232 80.552 177.632 80.184C178.032 79.8 178.44 79.192 178.856 78.36C179.272 77.512 179.68 76.416 180.08 75.072C180.432 73.92 180.728 72.696 180.968 71.4C181.224 70.104 181.408 68.832 181.52 67.584L183.536 67.608ZM209.432 66.432H211.16V79.68H209.432V66.432ZM214.352 64.248H216.104V83.424C216.104 84.032 216.024 84.488 215.864 84.792C215.704 85.112 215.44 85.344 215.072 85.488C214.688 85.648 214.16 85.744 213.488 85.776C212.816 85.824 212.016 85.848 211.088 85.848C211.072 85.672 211.024 85.472 210.944 85.248C210.88 85.024 210.808 84.792 210.728 84.552C210.648 84.328 210.56 84.128 210.464 83.952C211.216 83.968 211.904 83.984 212.528 84C213.168 84 213.6 83.992 213.824 83.976C214.016 83.96 214.152 83.92 214.232 83.856C214.312 83.792 214.352 83.656 214.352 83.448V64.248ZM197.624 83.208H205.688V84.648H197.624V83.208ZM195.32 75.648H207.728V77.088H195.32V75.648ZM196.64 69.744H206.6V71.112H196.64V69.744ZM196.784 72.696H206.336V74.016H196.784V72.696ZM200.72 63.912H202.448V66.888H200.72V63.912ZM200.744 68.184H202.424V76.44H200.744V68.184ZM196.784 78.432H206.624V85.584H204.92V79.848H198.44V85.848H196.784V78.432ZM195.344 66.072H207.992V69.864H206.312V67.488H196.952V69.864H195.344V66.072ZM223.952 71.688H236.072V73.296H223.952V71.688ZM223.52 83.328H236.384V84.936H223.52V83.328ZM222.704 76.32H237.392V85.944H235.568V77.952H224.48V85.944H222.704V76.32ZM229.952 65.664C229.296 66.64 228.44 67.648 227.384 68.688C226.344 69.728 225.184 70.728 223.904 71.688C222.64 72.648 221.32 73.496 219.944 74.232C219.864 74.104 219.76 73.952 219.632 73.776C219.504 73.6 219.368 73.424 219.224 73.248C219.08 73.072 218.944 72.928 218.816 72.816C220.224 72.096 221.576 71.24 222.872 70.248C224.184 69.256 225.36 68.208 226.4 67.104C227.456 66 228.296 64.928 228.92 63.888H230.768C231.408 64.784 232.136 65.656 232.952 66.504C233.784 67.352 234.664 68.152 235.592 68.904C236.536 69.656 237.496 70.344 238.472 70.968C239.464 71.576 240.432 72.088 241.376 72.504C241.168 72.728 240.96 72.984 240.752 73.272C240.544 73.56 240.352 73.84 240.176 74.112C239.232 73.6 238.28 73.024 237.32 72.384C236.36 71.744 235.424 71.056 234.512 70.32C233.6 69.568 232.752 68.8 231.968 68.016C231.184 67.216 230.512 66.432 229.952 65.664Z" fill="#191E1E"/>
<g clip-path="url(#clip0_1322_3542)">
<path d="M80.0611 151.43V137H147.921L104.241 228H87.8611L125.171 151.43H80.0611ZM220.677 198.36C220.677 203.647 219.767 208.24 217.947 212.14C216.127 216.04 213.614 219.29 210.407 221.89C207.201 224.403 203.561 226.31 199.487 227.61C195.501 228.823 191.297 229.43 186.877 229.43C181.331 229.43 176.434 228.693 172.187 227.22C167.941 225.747 164.257 223.797 161.137 221.37C158.017 218.857 155.287 216.17 152.947 213.31L161.917 202.26C163.737 204.6 165.861 206.767 168.287 208.76C170.801 210.667 173.487 212.227 176.347 213.44C179.207 214.567 182.067 215.13 184.927 215.13C189.087 215.13 192.597 214.437 195.457 213.05C198.317 211.663 200.484 209.627 201.957 206.94C203.517 204.253 204.297 201.09 204.297 197.45C204.297 193.723 203.431 190.56 201.697 187.96C199.964 185.36 197.624 183.367 194.677 181.98C191.731 180.593 188.481 179.9 184.927 179.9C182.327 179.9 179.727 180.117 177.127 180.55C174.614 180.897 172.014 181.59 169.327 182.63C166.727 183.67 163.867 185.143 160.747 187.05L173.097 137H219.767V150.52H184.667L178.947 171.32C181.201 170.193 183.541 169.37 185.967 168.85C188.394 168.33 190.864 168.07 193.377 168.07C198.404 168.07 202.997 169.327 207.157 171.84C211.317 174.353 214.611 177.863 217.037 182.37C219.464 186.877 220.677 192.207 220.677 198.36Z" fill="#191E1E"/>
<path d="M229.37 220.278C228.486 220.278 227.715 220.044 227.056 219.576C226.415 219.091 225.912 218.397 225.548 217.496C225.201 216.595 225.028 215.503 225.028 214.22C225.028 212.937 225.201 211.854 225.548 210.97C225.912 210.069 226.415 209.384 227.056 208.916C227.715 208.448 228.486 208.214 229.37 208.214C230.67 208.214 231.719 208.734 232.516 209.774C233.313 210.814 233.712 212.296 233.712 214.22C233.712 215.503 233.53 216.595 233.166 217.496C232.802 218.397 232.291 219.091 231.632 219.576C230.991 220.044 230.237 220.278 229.37 220.278ZM229.37 218.796C230.133 218.796 230.739 218.415 231.19 217.652C231.658 216.872 231.892 215.728 231.892 214.22C231.892 212.677 231.658 211.542 231.19 210.814C230.739 210.069 230.133 209.696 229.37 209.696C228.607 209.696 227.992 210.069 227.524 210.814C227.056 211.542 226.822 212.677 226.822 214.22C226.822 215.728 227.056 216.872 227.524 217.652C227.992 218.415 228.607 218.796 229.37 218.796ZM242.656 228.026C241.807 228.026 241.053 227.792 240.394 227.324C239.735 226.839 239.224 226.145 238.86 225.244C238.513 224.343 238.34 223.251 238.34 221.968C238.34 220.685 238.513 219.602 238.86 218.718C239.224 217.834 239.735 217.158 240.394 216.69C241.053 216.205 241.807 215.962 242.656 215.962C243.54 215.962 244.303 216.205 244.944 216.69C245.603 217.158 246.105 217.834 246.452 218.718C246.816 219.602 246.998 220.685 246.998 221.968C246.998 223.251 246.816 224.343 246.452 225.244C246.105 226.145 245.603 226.839 244.944 227.324C244.303 227.792 243.54 228.026 242.656 228.026ZM242.656 226.544C243.436 226.544 244.051 226.163 244.502 225.4C244.97 224.637 245.204 223.493 245.204 221.968C245.204 220.443 244.97 219.307 244.502 218.562C244.051 217.817 243.436 217.444 242.656 217.444C241.911 217.444 241.304 217.817 240.836 218.562C240.368 219.307 240.134 220.443 240.134 221.968C240.134 223.493 240.368 224.637 240.836 225.4C241.304 226.163 241.911 226.544 242.656 226.544ZM229.916 228.026L240.472 208.214H242.058L231.502 228.026H229.916Z" fill="#191E1E"/>
<path d="M239.561 136.315C237.998 135.425 236 136.529 236 138.348L236.016 170.942C236.016 172.064 236.617 173.096 237.596 173.66L237.604 173.664L253.247 182.533L253.257 182.539C254.349 183.15 255.69 183.16 256.788 182.531H256.791L272.412 173.664L272.42 173.659C272.901 173.383 273.3 172.987 273.578 172.51C273.855 172.033 274.001 171.492 274 170.942V138.346C274 136.529 272.002 135.424 270.439 136.314L255 145.141L239.561 136.315ZM239.182 170.94L239.167 139.71L255 148.761L255.016 179.866C254.946 179.862 254.877 179.844 254.815 179.811L254.812 179.809L239.184 170.949L239.182 170.94Z" fill="#7D6446"/>
</g>
<defs>
<clipPath id="clip0_1322_3542">
<rect width="256" height="147" fill="white" transform="translate(30 109)"/>
</clipPath>
</defs>
</svg>
