<svg width="172" height="172" viewBox="0 0 172 172" fill="none" xmlns="http://www.w3.org/2000/svg">
<mask id="path-1-inside-1_1322_2845" fill="white">
<path d="M0 0H172V172H0V0Z"/>
</mask>
<path d="M0 0H172V172H0V0Z" fill="#FAF9F7"/>
<path d="M0 0V1H172V0V-1H0V0Z" fill="#191E1E" mask="url(#path-1-inside-1_1322_2845)"/>
<path d="M57.44 33.51L57.95 32.73C58.3 32.82 58.67 32.935 59.06 33.075C59.45 33.205 59.825 33.345 60.185 33.495C60.555 33.635 60.86 33.765 61.1 33.885L60.605 34.77C60.365 34.63 60.065 34.485 59.705 34.335C59.345 34.185 58.965 34.035 58.565 33.885C58.165 33.735 57.79 33.61 57.44 33.51ZM56.69 36.675C57.23 36.535 57.875 36.36 58.625 36.15C59.385 35.94 60.15 35.73 60.92 35.52L61.04 36.42C60.37 36.64 59.69 36.86 59 37.08C58.32 37.29 57.7 37.48 57.14 37.65L56.69 36.675ZM63.14 33.495H69.155V34.35H62.48L63.14 33.495ZM68.87 33.495H69.05L69.23 33.45L69.995 33.675C69.785 34.065 69.545 34.455 69.275 34.845C69.015 35.235 68.75 35.56 68.48 35.82L67.58 35.505C67.81 35.265 68.045 34.98 68.285 34.65C68.525 34.31 68.72 33.98 68.87 33.66V33.495ZM65 33.81H66.035C65.945 34.34 65.81 34.815 65.63 35.235C65.46 35.645 65.21 36.01 64.88 36.33C64.56 36.65 64.14 36.925 63.62 37.155C63.1 37.375 62.46 37.56 61.7 37.71C61.65 37.59 61.57 37.45 61.46 37.29C61.35 37.13 61.25 37 61.16 36.9C61.85 36.79 62.425 36.645 62.885 36.465C63.355 36.285 63.73 36.075 64.01 35.835C64.3 35.585 64.52 35.295 64.67 34.965C64.83 34.625 64.94 34.24 65 33.81ZM65.99 34.065C66.06 34.385 66.17 34.7 66.32 35.01C66.48 35.31 66.715 35.595 67.025 35.865C67.335 36.135 67.755 36.37 68.285 36.57C68.825 36.77 69.515 36.93 70.355 37.05C70.255 37.16 70.145 37.31 70.025 37.5C69.905 37.68 69.82 37.84 69.77 37.98C68.88 37.82 68.15 37.61 67.58 37.35C67.01 37.08 66.56 36.775 66.23 36.435C65.9 36.085 65.645 35.72 65.465 35.34C65.295 34.95 65.16 34.56 65.06 34.17L65.99 34.065ZM63.38 32.4L64.385 32.55C64.135 33.1 63.81 33.645 63.41 34.185C63.02 34.715 62.535 35.205 61.955 35.655C61.855 35.555 61.72 35.45 61.55 35.34C61.39 35.23 61.24 35.15 61.1 35.1C61.66 34.71 62.13 34.275 62.51 33.795C62.89 33.305 63.18 32.84 63.38 32.4ZM59.81 40.23V41.265H67.37V40.23H59.81ZM59.81 41.985V43.035H67.37V41.985H59.81ZM59.81 38.49V39.495H67.37V38.49H59.81ZM58.715 37.725H68.495V43.785H58.715V37.725ZM64.76 44.565L65.675 43.995C66.225 44.165 66.78 44.345 67.34 44.535C67.9 44.725 68.43 44.915 68.93 45.105C69.43 45.305 69.86 45.49 70.22 45.66L68.96 46.23C68.65 46.07 68.27 45.895 67.82 45.705C67.37 45.515 66.885 45.32 66.365 45.12C65.845 44.93 65.31 44.745 64.76 44.565ZM61.22 43.95L62.255 44.415C61.845 44.655 61.375 44.89 60.845 45.12C60.325 45.35 59.785 45.56 59.225 45.75C58.665 45.94 58.135 46.105 57.635 46.245C57.575 46.165 57.495 46.07 57.395 45.96C57.295 45.86 57.19 45.755 57.08 45.645C56.98 45.545 56.885 45.465 56.795 45.405C57.315 45.295 57.845 45.165 58.385 45.015C58.935 44.865 59.455 44.7 59.945 44.52C60.435 44.34 60.86 44.15 61.22 43.95ZM79.295 34.02H83.525V34.995H79.295V34.02ZM77.93 40.695H84.26V46.155H83.165V41.67H78.98V46.215H77.93V40.695ZM78.38 44.565H83.75V45.555H78.38V44.565ZM79.73 32.385L80.81 32.67C80.55 33.34 80.235 33.985 79.865 34.605C79.495 35.225 79.095 35.805 78.665 36.345C78.235 36.875 77.79 37.34 77.33 37.74C77.27 37.67 77.185 37.59 77.075 37.5C76.965 37.4 76.85 37.305 76.73 37.215C76.62 37.115 76.525 37.035 76.445 36.975C77.135 36.435 77.765 35.76 78.335 34.95C78.915 34.14 79.38 33.285 79.73 32.385ZM83.225 34.02H83.42L83.63 33.975L84.335 34.305C84.015 35.235 83.59 36.08 83.06 36.84C82.53 37.6 81.93 38.285 81.26 38.895C80.59 39.495 79.87 40.015 79.1 40.455C78.33 40.895 77.55 41.26 76.76 41.55C76.69 41.41 76.59 41.25 76.46 41.07C76.34 40.89 76.225 40.745 76.115 40.635C76.865 40.405 77.605 40.09 78.335 39.69C79.065 39.28 79.75 38.805 80.39 38.265C81.03 37.715 81.59 37.1 82.07 36.42C82.56 35.74 82.945 35 83.225 34.2V34.02ZM79.205 34.8C79.525 35.5 79.975 36.21 80.555 36.93C81.145 37.64 81.865 38.295 82.715 38.895C83.575 39.485 84.555 39.945 85.655 40.275C85.575 40.355 85.49 40.45 85.4 40.56C85.31 40.67 85.225 40.785 85.145 40.905C85.075 41.015 85.01 41.12 84.95 41.22C83.84 40.83 82.855 40.315 81.995 39.675C81.135 39.035 80.405 38.335 79.805 37.575C79.205 36.815 78.735 36.065 78.395 35.325L79.205 34.8ZM71.78 35.61H77.045V36.675H71.78V35.61ZM74.03 32.4H75.095V46.185H74.03V32.4ZM73.985 36.285L74.705 36.525C74.585 37.125 74.425 37.75 74.225 38.4C74.035 39.04 73.82 39.67 73.58 40.29C73.35 40.9 73.1 41.47 72.83 42C72.56 42.53 72.285 42.985 72.005 43.365C71.945 43.215 71.855 43.045 71.735 42.855C71.625 42.665 71.52 42.505 71.42 42.375C71.69 42.035 71.95 41.63 72.2 41.16C72.46 40.69 72.705 40.18 72.935 39.63C73.165 39.08 73.37 38.52 73.55 37.95C73.73 37.38 73.875 36.825 73.985 36.285ZM75.035 37.275C75.125 37.375 75.26 37.535 75.44 37.755C75.63 37.965 75.83 38.2 76.04 38.46C76.25 38.72 76.445 38.96 76.625 39.18C76.805 39.4 76.93 39.56 77 39.66L76.325 40.515C76.235 40.355 76.11 40.15 75.95 39.9C75.79 39.65 75.615 39.39 75.425 39.12C75.235 38.84 75.055 38.58 74.885 38.34C74.715 38.1 74.575 37.915 74.465 37.785L75.035 37.275ZM86.81 37.215H100.19V38.235H86.81V37.215ZM88.13 34.29H96.83V35.28H88.13V34.29ZM90.575 42.255H97.64V43.155H90.575V42.255ZM90.575 44.73H97.64V45.705H90.575V44.73ZM91.985 32.4H93.095V37.755H91.985V32.4ZM98.555 32.91L99.515 33.435C98.515 34.745 97.36 35.945 96.05 37.035C94.75 38.125 93.35 39.1 91.85 39.96C90.35 40.82 88.8 41.555 87.2 42.165C87.16 42.075 87.095 41.975 87.005 41.865C86.915 41.745 86.82 41.63 86.72 41.52C86.63 41.4 86.55 41.3 86.48 41.22C88.1 40.66 89.655 39.97 91.145 39.15C92.635 38.33 94.01 37.395 95.27 36.345C96.54 35.295 97.635 34.15 98.555 32.91ZM89.96 39.81H98.345V46.14H97.19V40.77H91.085V46.2H89.96V39.81ZM101.585 40.41H108.965V41.34H101.585V40.41ZM101.675 35.16H108.905V36.09H101.675V35.16ZM104.375 39.105L105.44 39.345C105.21 39.825 104.955 40.34 104.675 40.89C104.405 41.43 104.135 41.955 103.865 42.465C103.605 42.965 103.36 43.415 103.13 43.815L102.14 43.47C102.36 43.09 102.605 42.65 102.875 42.15C103.145 41.65 103.41 41.135 103.67 40.605C103.94 40.065 104.175 39.565 104.375 39.105ZM106.625 40.965L107.675 41.1C107.555 41.83 107.355 42.475 107.075 43.035C106.805 43.585 106.445 44.065 105.995 44.475C105.555 44.875 105.015 45.215 104.375 45.495C103.745 45.775 102.995 46.01 102.125 46.2C102.085 46.05 102.015 45.885 101.915 45.705C101.825 45.525 101.73 45.375 101.63 45.255C102.68 45.075 103.545 44.815 104.225 44.475C104.905 44.125 105.435 43.665 105.815 43.095C106.205 42.515 106.475 41.805 106.625 40.965ZM107.57 32.685L108.545 33.105C108.325 33.455 108.095 33.805 107.855 34.155C107.625 34.505 107.405 34.805 107.195 35.055L106.43 34.68C106.62 34.42 106.825 34.1 107.045 33.72C107.265 33.33 107.44 32.985 107.57 32.685ZM104.78 32.385H105.83V39.285H104.78V32.385ZM102.245 33.105L103.085 32.76C103.305 33.06 103.505 33.39 103.685 33.75C103.875 34.11 104.005 34.425 104.075 34.695L103.175 35.085C103.115 34.825 102.995 34.51 102.815 34.14C102.635 33.76 102.445 33.415 102.245 33.105ZM104.81 35.58L105.56 36.015C105.32 36.435 105.01 36.855 104.63 37.275C104.26 37.695 103.855 38.085 103.415 38.445C102.985 38.795 102.555 39.09 102.125 39.33C102.065 39.2 101.975 39.05 101.855 38.88C101.735 38.71 101.62 38.575 101.51 38.475C101.93 38.285 102.35 38.04 102.77 37.74C103.19 37.44 103.58 37.1 103.94 36.72C104.3 36.34 104.59 35.96 104.81 35.58ZM105.71 36.09C105.84 36.16 106.035 36.275 106.295 36.435C106.565 36.595 106.85 36.77 107.15 36.96C107.45 37.15 107.725 37.325 107.975 37.485C108.225 37.645 108.405 37.77 108.515 37.86L107.885 38.67C107.755 38.55 107.57 38.395 107.33 38.205C107.09 38.015 106.83 37.815 106.55 37.605C106.28 37.395 106.02 37.195 105.77 37.005C105.52 36.815 105.315 36.67 105.155 36.57L105.71 36.09ZM110.06 35.16H115.4V36.21H110.06V35.16ZM110.435 32.385L111.56 32.55C111.4 33.53 111.19 34.475 110.93 35.385C110.68 36.285 110.385 37.125 110.045 37.905C109.705 38.675 109.315 39.35 108.875 39.93C108.815 39.86 108.73 39.78 108.62 39.69C108.51 39.59 108.39 39.495 108.26 39.405C108.14 39.305 108.04 39.225 107.96 39.165C108.38 38.635 108.75 38.015 109.07 37.305C109.39 36.585 109.66 35.81 109.88 34.98C110.11 34.14 110.295 33.275 110.435 32.385ZM113.375 35.76L114.53 35.88C114.29 37.61 113.93 39.13 113.45 40.44C112.98 41.75 112.34 42.88 111.53 43.83C110.73 44.78 109.7 45.585 108.44 46.245C108.4 46.145 108.34 46.03 108.26 45.9C108.18 45.78 108.095 45.655 108.005 45.525C107.925 45.405 107.845 45.305 107.765 45.225C108.955 44.665 109.925 43.955 110.675 43.095C111.425 42.225 112.01 41.185 112.43 39.975C112.86 38.755 113.175 37.35 113.375 35.76ZM110.66 36.09C110.88 37.47 111.19 38.765 111.59 39.975C112 41.175 112.53 42.23 113.18 43.14C113.83 44.04 114.62 44.735 115.55 45.225C115.46 45.305 115.36 45.4 115.25 45.51C115.15 45.62 115.055 45.735 114.965 45.855C114.875 45.975 114.8 46.09 114.74 46.2C113.77 45.62 112.95 44.845 112.28 43.875C111.61 42.895 111.065 41.76 110.645 40.47C110.225 39.18 109.89 37.775 109.64 36.255L110.66 36.09ZM103.04 43.275L103.625 42.51C104.225 42.73 104.82 42.985 105.41 43.275C106 43.555 106.55 43.845 107.06 44.145C107.57 44.445 108.005 44.735 108.365 45.015L107.585 45.825C107.245 45.535 106.83 45.24 106.34 44.94C105.85 44.64 105.32 44.345 104.75 44.055C104.19 43.765 103.62 43.505 103.04 43.275Z" fill="#191E1E"/>
<g clip-path="url(#clip0_1322_2845)">
<path d="M32.8453 76.88V68H74.6053L47.7253 124H37.6453L60.6053 76.88H32.8453ZM111.378 105.76C111.378 109.013 110.818 111.84 109.698 114.24C108.578 116.64 107.032 118.64 105.058 120.24C103.085 121.787 100.845 122.96 98.3384 123.76C95.8851 124.507 93.2984 124.88 90.5784 124.88C87.1651 124.88 84.1518 124.427 81.5384 123.52C78.9251 122.613 76.6584 121.413 74.7384 119.92C72.8184 118.373 71.1384 116.72 69.6984 114.96L75.2184 108.16C76.3384 109.6 77.6451 110.933 79.1384 112.16C80.6851 113.333 82.3384 114.293 84.0984 115.04C85.8584 115.733 87.6184 116.08 89.3784 116.08C91.9384 116.08 94.0984 115.653 95.8584 114.8C97.6184 113.947 98.9518 112.693 99.8584 111.04C100.818 109.387 101.298 107.44 101.298 105.2C101.298 102.907 100.765 100.96 99.6984 99.36C98.6318 97.76 97.1918 96.5333 95.3784 95.68C93.5651 94.8267 91.5651 94.4 89.3784 94.4C87.7784 94.4 86.1784 94.5333 84.5784 94.8C83.0318 95.0133 81.4318 95.44 79.7784 96.08C78.1784 96.72 76.4184 97.6267 74.4984 98.8L82.0984 68H110.818V76.32H89.2184L85.6984 89.12C87.0851 88.4267 88.5251 87.92 90.0184 87.6C91.5118 87.28 93.0318 87.12 94.5784 87.12C97.6718 87.12 100.498 87.8933 103.058 89.44C105.618 90.9867 107.645 93.1467 109.138 95.92C110.632 98.6933 111.378 101.973 111.378 105.76Z" fill="#191E1E"/>
<path d="M136 62C135.023 62 134.052 62.3312 133.216 62.9367L130.628 64.7596L127.646 65.1538H127.597L127.549 65.2027C126.57 65.4249 125.675 65.9226 124.965 66.638C124.256 67.3535 123.763 68.2573 123.543 69.2444L123.496 69.2933V69.3422L123.105 72.3982L121.298 74.7636L121.248 74.8125V74.8614C120.156 76.6228 120.107 78.8967 121.298 80.5777L123.154 83.1891L123.643 85.9014L118.611 93.6362L117 96.0521H124.473L126.28 100.289L127.403 103L129.015 100.535L133.948 93.0449C135.273 93.5937 136.769 93.6441 138.052 93.0449L142.985 100.535L144.597 103L145.72 100.289L147.527 96.0521H155L153.389 93.6362L150.946 89.8918L148.504 86.1474L148.895 83.1907L150.702 80.5793L150.752 80.5304V80.4815C151.844 78.7201 151.893 76.4951 150.702 74.8141L148.895 72.2011L148.309 69.2444H148.357C148.351 69.2065 148.315 69.1813 148.309 69.145C148.027 67.0824 146.41 65.4077 144.353 65.1538H144.303L141.372 64.7596L138.784 62.9367C137.976 62.3388 137.002 62.0113 136 62ZM136 65.2027C136.359 65.2027 136.714 65.3131 136.977 65.4992L139.761 67.5192L140.103 67.7652L140.494 67.8157L143.914 68.3077H143.96C144.664 68.3865 145.151 68.8801 145.231 69.5897V69.6875L145.867 73.1867L145.914 73.532L146.16 73.8269L148.162 76.6354C148.535 77.159 148.584 78.0468 148.113 78.8037L145.916 81.9087L145.866 82.3029L145.378 85.7532V85.8005C145.352 86.0469 145.268 86.2835 145.134 86.4912L145.036 86.5417V86.589C144.804 86.8704 144.47 87.0479 144.109 87.0825H144.01L140.445 87.7243L140.054 87.7717L139.761 88.0192L136.977 90.0393C136.458 90.4162 135.53 90.465 134.779 89.9904L132.239 88.0192L131.946 87.7732L131.506 87.7228L128.086 87.2308H128.04C127.819 87.2104 127.606 87.1372 127.419 87.017C127.232 86.8969 127.076 86.7333 126.964 86.5401C126.861 86.358 126.794 86.157 126.769 85.9487V85.851L126.134 82.254L126.084 81.8598L125.84 81.5633L123.838 78.7548C123.465 78.2313 123.416 77.2946 123.887 76.5377L125.84 73.9752L126.084 73.6787L126.133 73.2356L126.573 69.9335C126.58 69.9098 126.616 69.9098 126.622 69.8846C126.72 69.5055 126.917 69.1595 127.192 68.8824C127.466 68.6053 127.809 68.4069 128.185 68.3077C128.21 68.3014 128.21 68.2651 128.233 68.2588L131.506 67.8141L131.897 67.7668L132.239 67.5192L135.023 65.4992C135.286 65.3147 135.641 65.2027 136 65.2027ZM146.794 89.2019L149.189 92.8982H145.425L145.034 93.8838L143.96 96.3958L140.639 91.2708L141.371 90.73L144.45 90.1875V90.2364C144.486 90.2301 144.509 90.1938 144.547 90.1875C145.369 90.0678 146.146 89.7274 146.794 89.2019ZM125.206 89.2508C125.885 89.8733 126.737 90.2693 127.647 90.3846H127.696L130.676 90.7788L131.359 91.3213L128.038 96.3958L126.964 93.8838L126.573 92.8982H122.813L125.206 89.2508Z" fill="#7D6446"/>
<path d="M136 65.2027C136.359 65.2027 136.714 65.3131 136.977 65.4992L139.761 67.5192L140.103 67.7652L140.494 67.8157L143.914 68.3077H143.96C144.664 68.3865 145.151 68.8801 145.231 69.5897V69.6875L145.867 73.1867L145.914 73.532L146.16 73.8269L148.162 76.6354C148.535 77.159 148.584 78.0468 148.113 78.8037L145.916 81.9087L145.866 82.3029L145.378 85.7532V85.8005C145.352 86.0469 145.268 86.2835 145.134 86.4912L145.036 86.5417V86.589C144.804 86.8704 144.47 87.0479 144.109 87.0825H144.01L140.445 87.7243L140.054 87.7717L139.761 88.0192L136.977 90.0393C136.458 90.4162 135.53 90.465 134.779 89.9904L132.239 88.0192L131.946 87.7732L131.506 87.7228L128.086 87.2308H128.04C127.819 87.2104 127.606 87.1372 127.419 87.017C127.232 86.8969 127.076 86.7333 126.964 86.5401C126.861 86.358 126.794 86.157 126.769 85.9487V85.851L126.134 82.254L126.084 81.8598L125.84 81.5633L123.838 78.7548C123.465 78.2313 123.416 77.2946 123.887 76.5377L125.84 73.9752L126.084 73.6787L126.133 73.2356L126.573 69.9335C126.58 69.9098 126.616 69.9098 126.622 69.8846C126.72 69.5055 126.917 69.1595 127.192 68.8824C127.466 68.6053 127.809 68.4069 128.185 68.3077C128.21 68.3014 128.21 68.2651 128.233 68.2588L131.506 67.8141L131.897 67.7668L132.239 67.5192L135.023 65.4992C135.286 65.3147 135.641 65.2027 136 65.2027Z" fill="#7D6446"/>
<path d="M120.92 119.248C120.376 119.248 119.901 119.104 119.496 118.816C119.101 118.517 118.792 118.091 118.568 117.536C118.355 116.981 118.248 116.309 118.248 115.52C118.248 114.731 118.355 114.064 118.568 113.52C118.792 112.965 119.101 112.544 119.496 112.256C119.901 111.968 120.376 111.824 120.92 111.824C121.72 111.824 122.365 112.144 122.856 112.784C123.347 113.424 123.592 114.336 123.592 115.52C123.592 116.309 123.48 116.981 123.256 117.536C123.032 118.091 122.717 118.517 122.312 118.816C121.917 119.104 121.453 119.248 120.92 119.248ZM120.92 118.336C121.389 118.336 121.763 118.101 122.04 117.632C122.328 117.152 122.472 116.448 122.472 115.52C122.472 114.571 122.328 113.872 122.04 113.424C121.763 112.965 121.389 112.736 120.92 112.736C120.451 112.736 120.072 112.965 119.784 113.424C119.496 113.872 119.352 114.571 119.352 115.52C119.352 116.448 119.496 117.152 119.784 117.632C120.072 118.101 120.451 118.336 120.92 118.336ZM129.096 124.016C128.573 124.016 128.109 123.872 127.704 123.584C127.299 123.285 126.984 122.859 126.76 122.304C126.547 121.749 126.44 121.077 126.44 120.288C126.44 119.499 126.547 118.832 126.76 118.288C126.984 117.744 127.299 117.328 127.704 117.04C128.109 116.741 128.573 116.592 129.096 116.592C129.64 116.592 130.109 116.741 130.504 117.04C130.909 117.328 131.219 117.744 131.432 118.288C131.656 118.832 131.768 119.499 131.768 120.288C131.768 121.077 131.656 121.749 131.432 122.304C131.219 122.859 130.909 123.285 130.504 123.584C130.109 123.872 129.64 124.016 129.096 124.016ZM129.096 123.104C129.576 123.104 129.955 122.869 130.232 122.4C130.52 121.931 130.664 121.227 130.664 120.288C130.664 119.349 130.52 118.651 130.232 118.192C129.955 117.733 129.576 117.504 129.096 117.504C128.637 117.504 128.264 117.733 127.976 118.192C127.688 118.651 127.544 119.349 127.544 120.288C127.544 121.227 127.688 121.931 127.976 122.4C128.264 122.869 128.637 123.104 129.096 123.104ZM121.256 124.016L127.752 111.824H128.728L122.232 124.016H121.256Z" fill="#191E1E"/>
</g>
<defs>
<clipPath id="clip0_1322_2845">
<rect width="152" height="84" fill="white" transform="translate(10 58)"/>
</clipPath>
</defs>
</svg>
